<?xml version="1.0" encoding="UTF-8"?>
<svg id="Layer_1" data-name="Layer 1" xmlns="http://www.w3.org/2000/svg" viewBox="0 0 140 110">
  <defs>
    <style>
      .cls-1 {
        fill: #fff;
      }

      .cls-2 {
        fill: #03adfd;
      }
    </style>
  </defs>
  <g>
    <rect class="cls-2" width="5" height="5"/>
    <rect class="cls-2" x="5" width="5" height="5"/>
    <rect class="cls-2" x="10" width="5" height="5"/>
    <rect class="cls-2" x="15" width="5" height="5"/>
    <rect class="cls-2" x="20" width="5" height="5"/>
    <rect class="cls-2" x="25" width="5" height="5"/>
    <rect class="cls-2" x="30" width="5" height="5"/>
    <rect class="cls-2" x="35" width="5" height="5"/>
    <rect class="cls-2" x="40" width="5" height="5"/>
    <rect class="cls-2" x="45" width="5" height="5"/>
    <rect class="cls-2" x="50" width="5" height="5"/>
    <rect class="cls-2" x="55" width="5" height="5"/>
    <rect class="cls-2" x="60" width="5" height="5"/>
    <rect class="cls-2" x="65" width="5" height="5"/>
    <rect class="cls-2" x="70" width="5" height="5"/>
    <rect class="cls-2" x="75" width="5" height="5"/>
    <rect class="cls-2" x="80" width="5" height="5"/>
    <rect class="cls-2" x="85" width="5" height="5"/>
    <rect class="cls-2" x="90" width="5" height="5"/>
    <rect class="cls-2" x="95" width="5" height="5"/>
    <rect class="cls-2" x="100" width="5" height="5"/>
    <rect class="cls-2" x="105" width="5" height="5"/>
    <rect class="cls-2" x="110" width="5" height="5"/>
    <rect class="cls-2" x="115" width="5" height="5"/>
    <rect class="cls-2" x="120" width="5" height="5"/>
    <rect class="cls-2" x="125" width="5" height="5"/>
    <rect class="cls-2" x="130" width="5" height="5"/>
    <rect class="cls-2" x="135" width="5" height="5"/>
  </g>
  <g>
    <rect class="cls-2" y="5" width="5" height="5"/>
    <rect class="cls-2" x="5" y="5" width="5" height="5"/>
    <rect class="cls-2" x="10" y="5" width="5" height="5"/>
    <rect class="cls-2" x="15" y="5" width="5" height="5"/>
    <rect class="cls-2" x="20" y="5" width="5" height="5"/>
    <rect class="cls-2" x="25" y="5" width="5" height="5"/>
    <rect class="cls-2" x="30" y="5" width="5" height="5"/>
    <rect class="cls-2" x="35" y="5" width="5" height="5"/>
    <rect class="cls-2" x="40" y="5" width="5" height="5"/>
    <rect class="cls-2" x="45" y="5" width="5" height="5"/>
    <rect class="cls-2" x="50" y="5" width="5" height="5"/>
    <rect class="cls-2" x="55" y="5" width="5" height="5"/>
    <rect class="cls-2" x="60" y="5" width="5" height="5"/>
    <rect class="cls-2" x="65" y="5" width="5" height="5"/>
    <rect class="cls-2" x="70" y="5" width="5" height="5"/>
    <rect class="cls-2" x="75" y="5" width="5" height="5"/>
    <rect class="cls-2" x="80" y="5" width="5" height="5"/>
    <rect class="cls-2" x="85" y="5" width="5" height="5"/>
    <rect class="cls-2" x="90" y="5" width="5" height="5"/>
    <rect class="cls-2" x="95" y="5" width="5" height="5"/>
    <rect class="cls-2" x="100" y="5" width="5" height="5"/>
    <rect class="cls-2" x="105" y="5" width="5" height="5"/>
    <rect class="cls-2" x="110" y="5" width="5" height="5"/>
    <rect class="cls-2" x="115" y="5" width="5" height="5"/>
    <rect class="cls-2" x="120" y="5" width="5" height="5"/>
    <rect class="cls-2" x="125" y="5" width="5" height="5"/>
    <rect class="cls-2" x="130" y="5" width="5" height="5"/>
    <rect class="cls-2" x="135" y="5" width="5" height="5"/>
  </g>
  <g>
    <rect class="cls-2" y="10" width="5" height="5"/>
    <rect class="cls-2" x="5" y="10" width="5" height="5"/>
    <rect class="cls-2" x="10" y="10" width="5" height="5"/>
    <rect class="cls-2" x="15" y="10" width="5" height="5"/>
    <rect class="cls-2" x="20" y="10" width="5" height="5"/>
    <rect class="cls-2" x="25" y="10" width="5" height="5"/>
    <rect class="cls-2" x="30" y="10" width="5" height="5"/>
    <rect class="cls-2" x="35" y="10" width="5" height="5"/>
    <rect class="cls-2" x="40" y="10" width="5" height="5"/>
    <rect class="cls-2" x="45" y="10" width="5" height="5"/>
    <rect class="cls-2" x="50" y="10" width="5" height="5"/>
    <rect class="cls-2" x="55" y="10" width="5" height="5"/>
    <rect class="cls-2" x="60" y="10" width="5" height="5"/>
    <rect class="cls-2" x="65" y="10" width="5" height="5"/>
    <rect class="cls-2" x="70" y="10" width="5" height="5"/>
    <rect class="cls-2" x="75" y="10" width="5" height="5"/>
    <rect class="cls-2" x="80" y="10" width="5" height="5"/>
    <rect class="cls-2" x="85" y="10" width="5" height="5"/>
    <rect class="cls-2" x="90" y="10" width="5" height="5"/>
    <rect class="cls-2" x="95" y="10" width="5" height="5"/>
    <rect class="cls-2" x="100" y="10" width="5" height="5"/>
    <rect class="cls-2" x="105" y="10" width="5" height="5"/>
    <rect class="cls-2" x="110" y="10" width="5" height="5"/>
    <rect class="cls-2" x="115" y="10" width="5" height="5"/>
    <rect class="cls-2" x="120" y="10" width="5" height="5"/>
    <rect class="cls-2" x="125" y="10" width="5" height="5"/>
    <rect class="cls-2" x="130" y="10" width="5" height="5"/>
    <rect class="cls-2" x="135" y="10" width="5" height="5"/>
  </g>
  <g>
    <rect class="cls-2" y="15" width="5" height="5"/>
    <rect class="cls-2" x="5" y="15" width="5" height="5"/>
    <rect class="cls-2" x="10" y="15" width="5" height="5"/>
    <rect class="cls-2" x="15" y="15" width="5" height="5"/>
    <rect class="cls-2" x="20" y="15" width="5" height="5"/>
    <rect class="cls-2" x="25" y="15" width="5" height="5"/>
    <rect class="cls-2" x="30" y="15" width="5" height="5"/>
    <rect class="cls-2" x="35" y="15" width="5" height="5"/>
    <rect class="cls-2" x="40" y="15" width="5" height="5"/>
    <rect class="cls-2" x="45" y="15" width="5" height="5"/>
    <rect class="cls-2" x="50" y="15" width="5" height="5"/>
    <rect class="cls-2" x="55" y="15" width="5" height="5"/>
    <rect class="cls-2" x="60" y="15" width="5" height="5"/>
    <rect class="cls-2" x="65" y="15" width="5" height="5"/>
    <rect class="cls-2" x="70" y="15" width="5" height="5"/>
    <rect class="cls-2" x="75" y="15" width="5" height="5"/>
    <rect class="cls-2" x="80" y="15" width="5" height="5"/>
    <rect class="cls-2" x="85" y="15" width="5" height="5"/>
    <rect class="cls-2" x="90" y="15" width="5" height="5"/>
    <rect class="cls-2" x="95" y="15" width="5" height="5"/>
    <rect class="cls-2" x="100" y="15" width="5" height="5"/>
    <rect class="cls-2" x="105" y="15" width="5" height="5"/>
    <rect class="cls-2" x="110" y="15" width="5" height="5"/>
    <rect class="cls-2" x="115" y="15" width="5" height="5"/>
    <rect class="cls-2" x="120" y="15" width="5" height="5"/>
    <rect class="cls-2" x="125" y="15" width="5" height="5"/>
    <rect class="cls-2" x="130" y="15" width="5" height="5"/>
    <rect class="cls-2" x="135" y="15" width="5" height="5"/>
  </g>
  <g>
    <rect class="cls-2" y="20" width="5" height="5"/>
    <rect class="cls-2" x="5" y="20" width="5" height="5"/>
    <rect class="cls-2" x="10" y="20" width="5" height="5"/>
    <rect class="cls-2" x="15" y="20" width="5" height="5"/>
    <rect class="cls-2" x="20" y="20" width="5" height="5"/>
    <rect class="cls-2" x="25" y="20" width="5" height="5"/>
    <rect class="cls-2" x="30" y="20" width="5" height="5"/>
    <rect class="cls-2" x="35" y="20" width="5" height="5"/>
    <rect class="cls-2" x="40" y="20" width="5" height="5"/>
    <rect class="cls-2" x="45" y="20" width="5" height="5"/>
    <rect class="cls-2" x="50" y="20" width="5" height="5"/>
    <rect class="cls-1" x="55" y="20" width="5" height="5"/>
    <rect class="cls-1" x="60" y="20" width="5" height="5"/>
    <rect class="cls-2" x="65" y="20" width="5" height="5"/>
    <rect class="cls-2" x="70" y="20" width="5" height="5"/>
    <rect class="cls-2" x="75" y="20" width="5" height="5"/>
    <rect class="cls-1" x="80" y="20" width="5" height="5"/>
    <rect class="cls-1" x="85" y="20" width="5" height="5"/>
    <rect class="cls-2" x="90" y="20" width="5" height="5"/>
    <rect class="cls-2" x="95" y="20" width="5" height="5"/>
    <rect class="cls-2" x="100" y="20" width="5" height="5"/>
    <rect class="cls-2" x="105" y="20" width="5" height="5"/>
    <rect class="cls-2" x="110" y="20" width="5" height="5"/>
    <rect class="cls-2" x="115" y="20" width="5" height="5"/>
    <rect class="cls-2" x="120" y="20" width="5" height="5"/>
    <rect class="cls-2" x="125" y="20" width="5" height="5"/>
    <rect class="cls-2" x="130" y="20" width="5" height="5"/>
    <rect class="cls-2" x="135" y="20" width="5" height="5"/>
  </g>
  <g>
    <rect class="cls-2" y="25" width="5" height="5"/>
    <rect class="cls-2" x="5" y="25" width="5" height="5"/>
    <rect class="cls-2" x="10" y="25" width="5" height="5"/>
    <rect class="cls-2" x="15" y="25" width="5" height="5"/>
    <rect class="cls-2" x="20" y="25" width="5" height="5"/>
    <rect class="cls-2" x="25" y="25" width="5" height="5"/>
    <rect class="cls-2" x="30" y="25" width="5" height="5"/>
    <rect class="cls-2" x="35" y="25" width="5" height="5"/>
    <rect class="cls-2" x="40" y="25" width="5" height="5"/>
    <rect class="cls-1" x="45" y="25" width="5" height="5"/>
    <rect class="cls-1" x="50" y="25" width="5" height="5"/>
    <rect class="cls-1" x="55" y="25" width="5" height="5"/>
    <rect class="cls-1" x="60" y="25" width="5" height="5"/>
    <rect class="cls-2" x="65" y="25" width="5" height="5"/>
    <rect class="cls-2" x="70" y="25" width="5" height="5"/>
    <rect class="cls-2" x="75" y="25" width="5" height="5"/>
    <rect class="cls-1" x="80" y="25" width="5" height="5"/>
    <rect class="cls-1" x="85" y="25" width="5" height="5"/>
    <rect class="cls-1" x="90" y="25" width="5" height="5"/>
    <rect class="cls-1" x="95" y="25" width="5" height="5"/>
    <rect class="cls-2" x="100" y="25" width="5" height="5"/>
    <rect class="cls-2" x="105" y="25" width="5" height="5"/>
    <rect class="cls-2" x="110" y="25" width="5" height="5"/>
    <rect class="cls-2" x="115" y="25" width="5" height="5"/>
    <rect class="cls-2" x="120" y="25" width="5" height="5"/>
    <rect class="cls-2" x="125" y="25" width="5" height="5"/>
    <rect class="cls-2" x="130" y="25" width="5" height="5"/>
    <rect class="cls-2" x="135" y="25" width="5" height="5"/>
  </g>
  <g>
    <rect class="cls-2" y="30" width="5" height="5"/>
    <rect class="cls-2" x="5" y="30" width="5" height="5"/>
    <rect class="cls-2" x="10" y="30" width="5" height="5"/>
    <rect class="cls-2" x="15" y="30" width="5" height="5"/>
    <rect class="cls-2" x="20" y="30" width="5" height="5"/>
    <rect class="cls-2" x="25" y="30" width="5" height="5"/>
    <rect class="cls-2" x="30" y="30" width="5" height="5"/>
    <rect class="cls-1" x="35" y="30" width="5" height="5"/>
    <rect class="cls-1" x="40" y="30" width="5" height="5"/>
    <rect class="cls-1" x="45" y="30" width="5" height="5"/>
    <rect class="cls-1" x="50" y="30" width="5" height="5"/>
    <rect class="cls-2" x="55" y="30" width="5" height="5"/>
    <rect class="cls-2" x="60" y="30" width="5" height="5"/>
    <rect class="cls-2" x="65" y="30" width="5" height="5"/>
    <rect class="cls-1" x="70" y="30" width="5" height="5"/>
    <rect class="cls-2" x="75" y="30" width="5" height="5"/>
    <rect class="cls-2" x="80" y="30" width="5" height="5"/>
    <rect class="cls-2" x="85" y="30" width="5" height="5"/>
    <rect class="cls-1" x="90" y="30" width="5" height="5"/>
    <rect class="cls-1" x="95" y="30" width="5" height="5"/>
    <rect class="cls-1" x="100" y="30" width="5" height="5"/>
    <rect class="cls-1" x="105" y="30" width="5" height="5"/>
    <rect class="cls-2" x="110" y="30" width="5" height="5"/>
    <rect class="cls-2" x="115" y="30" width="5" height="5"/>
    <rect class="cls-2" x="120" y="30" width="5" height="5"/>
    <rect class="cls-2" x="125" y="30" width="5" height="5"/>
    <rect class="cls-2" x="130" y="30" width="5" height="5"/>
    <rect class="cls-2" x="135" y="30" width="5" height="5"/>
  </g>
  <g>
    <rect class="cls-2" y="35" width="5" height="5"/>
    <rect class="cls-2" x="5" y="35" width="5" height="5"/>
    <rect class="cls-2" x="10" y="35" width="5" height="5"/>
    <rect class="cls-2" x="15" y="35" width="5" height="5"/>
    <rect class="cls-2" x="20" y="35" width="5" height="5"/>
    <rect class="cls-2" x="25" y="35" width="5" height="5"/>
    <rect class="cls-2" x="30" y="35" width="5" height="5"/>
    <rect class="cls-1" x="35" y="35" width="5" height="5"/>
    <rect class="cls-1" x="40" y="35" width="5" height="5"/>
    <rect class="cls-2" x="45" y="35" width="5" height="5"/>
    <rect class="cls-2" x="50" y="35" width="5" height="5"/>
    <rect class="cls-2" x="55" y="35" width="5" height="5"/>
    <rect class="cls-2" x="60" y="35" width="5" height="5"/>
    <rect class="cls-1" x="65" y="35" width="5" height="5"/>
    <rect class="cls-1" x="70" y="35" width="5" height="5"/>
    <rect class="cls-1" x="75" y="35" width="5" height="5"/>
    <rect class="cls-2" x="80" y="35" width="5" height="5"/>
    <rect class="cls-2" x="85" y="35" width="5" height="5"/>
    <rect class="cls-2" x="90" y="35" width="5" height="5"/>
    <rect class="cls-2" x="95" y="35" width="5" height="5"/>
    <rect class="cls-1" x="100" y="35" width="5" height="5"/>
    <rect class="cls-1" x="105" y="35" width="5" height="5"/>
    <rect class="cls-2" x="110" y="35" width="5" height="5"/>
    <rect class="cls-2" x="115" y="35" width="5" height="5"/>
    <rect class="cls-2" x="120" y="35" width="5" height="5"/>
    <rect class="cls-2" x="125" y="35" width="5" height="5"/>
    <rect class="cls-2" x="130" y="35" width="5" height="5"/>
    <rect class="cls-2" x="135" y="35" width="5" height="5"/>
  </g>
  <g>
    <rect class="cls-2" y="40" width="5" height="5"/>
    <rect class="cls-2" x="5" y="40" width="5" height="5"/>
    <rect class="cls-2" x="10" y="40" width="5" height="5"/>
    <rect class="cls-2" x="15" y="40" width="5" height="5"/>
    <rect class="cls-2" x="20" y="40" width="5" height="5"/>
    <rect class="cls-2" x="25" y="40" width="5" height="5"/>
    <rect class="cls-1" x="30" y="40" width="5" height="5"/>
    <rect class="cls-1" x="35" y="40" width="5" height="5"/>
    <rect class="cls-2" x="40" y="40" width="5" height="5"/>
    <rect class="cls-2" x="45" y="40" width="5" height="5"/>
    <rect class="cls-2" x="50" y="40" width="5" height="5"/>
    <rect class="cls-2" x="55" y="40" width="5" height="5"/>
    <rect class="cls-1" x="60" y="40" width="5" height="5"/>
    <rect class="cls-1" x="65" y="40" width="5" height="5"/>
    <rect class="cls-1" x="70" y="40" width="5" height="5"/>
    <rect class="cls-1" x="75" y="40" width="5" height="5"/>
    <rect class="cls-1" x="80" y="40" width="5" height="5"/>
    <rect class="cls-2" x="85" y="40" width="5" height="5"/>
    <rect class="cls-2" x="90" y="40" width="5" height="5"/>
    <rect class="cls-2" x="95" y="40" width="5" height="5"/>
    <rect class="cls-2" x="100" y="40" width="5" height="5"/>
    <rect class="cls-1" x="105" y="40" width="5" height="5"/>
    <rect class="cls-1" x="110" y="40" width="5" height="5"/>
    <rect class="cls-2" x="115" y="40" width="5" height="5"/>
    <rect class="cls-2" x="120" y="40" width="5" height="5"/>
    <rect class="cls-2" x="125" y="40" width="5" height="5"/>
    <rect class="cls-2" x="130" y="40" width="5" height="5"/>
    <rect class="cls-2" x="135" y="40" width="5" height="5"/>
  </g>
  <g>
    <rect class="cls-2" y="45" width="5" height="5"/>
    <rect class="cls-2" x="5" y="45" width="5" height="5"/>
    <rect class="cls-2" x="10" y="45" width="5" height="5"/>
    <rect class="cls-2" x="15" y="45" width="5" height="5"/>
    <rect class="cls-2" x="20" y="45" width="5" height="5"/>
    <rect class="cls-2" x="25" y="45" width="5" height="5"/>
    <rect class="cls-1" x="30" y="45" width="5" height="5"/>
    <rect class="cls-1" x="35" y="45" width="5" height="5"/>
    <rect class="cls-2" x="40" y="45" width="5" height="5"/>
    <rect class="cls-2" x="45" y="45" width="5" height="5"/>
    <rect class="cls-2" x="50" y="45" width="5" height="5"/>
    <rect class="cls-1" x="55" y="45" width="5" height="5"/>
    <rect class="cls-1" x="60" y="45" width="5" height="5"/>
    <rect class="cls-1" x="65" y="45" width="5" height="5"/>
    <rect class="cls-2" x="70" y="45" width="5" height="5"/>
    <rect class="cls-1" x="75" y="45" width="5" height="5"/>
    <rect class="cls-1" x="80" y="45" width="5" height="5"/>
    <rect class="cls-1" x="85" y="45" width="5" height="5"/>
    <rect class="cls-2" x="90" y="45" width="5" height="5"/>
    <rect class="cls-2" x="95" y="45" width="5" height="5"/>
    <rect class="cls-2" x="100" y="45" width="5" height="5"/>
    <rect class="cls-1" x="105" y="45" width="5" height="5"/>
    <rect class="cls-1" x="110" y="45" width="5" height="5"/>
    <rect class="cls-2" x="115" y="45" width="5" height="5"/>
    <rect class="cls-2" x="120" y="45" width="5" height="5"/>
    <rect class="cls-2" x="125" y="45" width="5" height="5"/>
    <rect class="cls-2" x="130" y="45" width="5" height="5"/>
    <rect class="cls-2" x="135" y="45" width="5" height="5"/>
  </g>
  <g>
    <rect class="cls-2" y="50" width="5" height="5"/>
    <rect class="cls-2" x="5" y="50" width="5" height="5"/>
    <rect class="cls-2" x="10" y="50" width="5" height="5"/>
    <rect class="cls-2" x="15" y="50" width="5" height="5"/>
    <rect class="cls-2" x="20" y="50" width="5" height="5"/>
    <rect class="cls-2" x="25" y="50" width="5" height="5"/>
    <rect class="cls-1" x="30" y="50" width="5" height="5"/>
    <rect class="cls-1" x="35" y="50" width="5" height="5"/>
    <rect class="cls-2" x="40" y="50" width="5" height="5"/>
    <rect class="cls-2" x="45" y="50" width="5" height="5"/>
    <rect class="cls-2" x="50" y="50" width="5" height="5"/>
    <rect class="cls-1" x="55" y="50" width="5" height="5"/>
    <rect class="cls-1" x="60" y="50" width="5" height="5"/>
    <rect class="cls-1" x="65" y="50" width="5" height="5"/>
    <rect class="cls-2" x="70" y="50" width="5" height="5"/>
    <rect class="cls-2" x="75" y="50" width="5" height="5"/>
    <rect class="cls-2" x="80" y="50" width="5" height="5"/>
    <rect class="cls-2" x="85" y="50" width="5" height="5"/>
    <rect class="cls-2" x="90" y="50" width="5" height="5"/>
    <rect class="cls-2" x="95" y="50" width="5" height="5"/>
    <rect class="cls-2" x="100" y="50" width="5" height="5"/>
    <rect class="cls-1" x="105" y="50" width="5" height="5"/>
    <rect class="cls-1" x="110" y="50" width="5" height="5"/>
    <rect class="cls-2" x="115" y="50" width="5" height="5"/>
    <rect class="cls-2" x="120" y="50" width="5" height="5"/>
    <rect class="cls-2" x="125" y="50" width="5" height="5"/>
    <rect class="cls-2" x="130" y="50" width="5" height="5"/>
    <rect class="cls-2" x="135" y="50" width="5" height="5"/>
  </g>
  <g>
    <rect class="cls-2" y="55" width="5" height="5"/>
    <rect class="cls-2" x="5" y="55" width="5" height="5"/>
    <rect class="cls-2" x="10" y="55" width="5" height="5"/>
    <rect class="cls-2" x="15" y="55" width="5" height="5"/>
    <rect class="cls-2" x="20" y="55" width="5" height="5"/>
    <rect class="cls-2" x="25" y="55" width="5" height="5"/>
    <rect class="cls-1" x="30" y="55" width="5" height="5"/>
    <rect class="cls-1" x="35" y="55" width="5" height="5"/>
    <rect class="cls-2" x="40" y="55" width="5" height="5"/>
    <rect class="cls-2" x="45" y="55" width="5" height="5"/>
    <rect class="cls-2" x="50" y="55" width="5" height="5"/>
    <rect class="cls-2" x="55" y="55" width="5" height="5"/>
    <rect class="cls-1" x="60" y="55" width="5" height="5"/>
    <rect class="cls-1" x="65" y="55" width="5" height="5"/>
    <rect class="cls-1" x="70" y="55" width="5" height="5"/>
    <rect class="cls-1" x="75" y="55" width="5" height="5"/>
    <rect class="cls-2" x="80" y="55" width="5" height="5"/>
    <rect class="cls-2" x="85" y="55" width="5" height="5"/>
    <rect class="cls-2" x="90" y="55" width="5" height="5"/>
    <rect class="cls-2" x="95" y="55" width="5" height="5"/>
    <rect class="cls-2" x="100" y="55" width="5" height="5"/>
    <rect class="cls-1" x="105" y="55" width="5" height="5"/>
    <rect class="cls-1" x="110" y="55" width="5" height="5"/>
    <rect class="cls-2" x="115" y="55" width="5" height="5"/>
    <rect class="cls-2" x="120" y="55" width="5" height="5"/>
    <rect class="cls-2" x="125" y="55" width="5" height="5"/>
    <rect class="cls-2" x="130" y="55" width="5" height="5"/>
    <rect class="cls-2" x="135" y="55" width="5" height="5"/>
  </g>
  <g>
    <rect class="cls-2" y="60" width="5" height="5"/>
    <rect class="cls-2" x="5" y="60" width="5" height="5"/>
    <rect class="cls-2" x="10" y="60" width="5" height="5"/>
    <rect class="cls-2" x="15" y="60" width="5" height="5"/>
    <rect class="cls-2" x="20" y="60" width="5" height="5"/>
    <rect class="cls-2" x="25" y="60" width="5" height="5"/>
    <rect class="cls-1" x="30" y="60" width="5" height="5"/>
    <rect class="cls-1" x="35" y="60" width="5" height="5"/>
    <rect class="cls-2" x="40" y="60" width="5" height="5"/>
    <rect class="cls-2" x="45" y="60" width="5" height="5"/>
    <rect class="cls-2" x="50" y="60" width="5" height="5"/>
    <rect class="cls-2" x="55" y="60" width="5" height="5"/>
    <rect class="cls-2" x="60" y="60" width="5" height="5"/>
    <rect class="cls-1" x="65" y="60" width="5" height="5"/>
    <rect class="cls-1" x="70" y="60" width="5" height="5"/>
    <rect class="cls-1" x="75" y="60" width="5" height="5"/>
    <rect class="cls-1" x="80" y="60" width="5" height="5"/>
    <rect class="cls-2" x="85" y="60" width="5" height="5"/>
    <rect class="cls-2" x="90" y="60" width="5" height="5"/>
    <rect class="cls-2" x="95" y="60" width="5" height="5"/>
    <rect class="cls-2" x="100" y="60" width="5" height="5"/>
    <rect class="cls-1" x="105" y="60" width="5" height="5"/>
    <rect class="cls-1" x="110" y="60" width="5" height="5"/>
    <rect class="cls-2" x="115" y="60" width="5" height="5"/>
    <rect class="cls-2" x="120" y="60" width="5" height="5"/>
    <rect class="cls-2" x="125" y="60" width="5" height="5"/>
    <rect class="cls-2" x="130" y="60" width="5" height="5"/>
    <rect class="cls-2" x="135" y="60" width="5" height="5"/>
  </g>
  <g>
    <rect class="cls-2" y="65" width="5" height="5"/>
    <rect class="cls-2" x="5" y="65" width="5" height="5"/>
    <rect class="cls-2" x="10" y="65" width="5" height="5"/>
    <rect class="cls-2" x="15" y="65" width="5" height="5"/>
    <rect class="cls-2" x="20" y="65" width="5" height="5"/>
    <rect class="cls-2" x="25" y="65" width="5" height="5"/>
    <rect class="cls-1" x="30" y="65" width="5" height="5"/>
    <rect class="cls-1" x="35" y="65" width="5" height="5"/>
    <rect class="cls-2" x="40" y="65" width="5" height="5"/>
    <rect class="cls-2" x="45" y="65" width="5" height="5"/>
    <rect class="cls-2" x="50" y="65" width="5" height="5"/>
    <rect class="cls-2" x="55" y="65" width="5" height="5"/>
    <rect class="cls-2" x="60" y="65" width="5" height="5"/>
    <rect class="cls-2" x="65" y="65" width="5" height="5"/>
    <rect class="cls-2" x="70" y="65" width="5" height="5"/>
    <rect class="cls-1" x="75" y="65" width="5" height="5"/>
    <rect class="cls-1" x="80" y="65" width="5" height="5"/>
    <rect class="cls-1" x="85" y="65" width="5" height="5"/>
    <rect class="cls-2" x="90" y="65" width="5" height="5"/>
    <rect class="cls-2" x="95" y="65" width="5" height="5"/>
    <rect class="cls-2" x="100" y="65" width="5" height="5"/>
    <rect class="cls-1" x="105" y="65" width="5" height="5"/>
    <rect class="cls-1" x="110" y="65" width="5" height="5"/>
    <rect class="cls-2" x="115" y="65" width="5" height="5"/>
    <rect class="cls-2" x="120" y="65" width="5" height="5"/>
    <rect class="cls-2" x="125" y="65" width="5" height="5"/>
    <rect class="cls-2" x="130" y="65" width="5" height="5"/>
    <rect class="cls-2" x="135" y="65" width="5" height="5"/>
  </g>
  <g>
    <rect class="cls-2" y="70" width="5" height="5"/>
    <rect class="cls-2" x="5" y="70" width="5" height="5"/>
    <rect class="cls-2" x="10" y="70" width="5" height="5"/>
    <rect class="cls-2" x="15" y="70" width="5" height="5"/>
    <rect class="cls-2" x="20" y="70" width="5" height="5"/>
    <rect class="cls-2" x="25" y="70" width="5" height="5"/>
    <rect class="cls-1" x="30" y="70" width="5" height="5"/>
    <rect class="cls-1" x="35" y="70" width="5" height="5"/>
    <rect class="cls-2" x="40" y="70" width="5" height="5"/>
    <rect class="cls-2" x="45" y="70" width="5" height="5"/>
    <rect class="cls-2" x="50" y="70" width="5" height="5"/>
    <rect class="cls-1" x="55" y="70" width="5" height="5"/>
    <rect class="cls-1" x="60" y="70" width="5" height="5"/>
    <rect class="cls-1" x="65" y="70" width="5" height="5"/>
    <rect class="cls-2" x="70" y="70" width="5" height="5"/>
    <rect class="cls-1" x="75" y="70" width="5" height="5"/>
    <rect class="cls-1" x="80" y="70" width="5" height="5"/>
    <rect class="cls-1" x="85" y="70" width="5" height="5"/>
    <rect class="cls-2" x="90" y="70" width="5" height="5"/>
    <rect class="cls-2" x="95" y="70" width="5" height="5"/>
    <rect class="cls-2" x="100" y="70" width="5" height="5"/>
    <rect class="cls-1" x="105" y="70" width="5" height="5"/>
    <rect class="cls-1" x="110" y="70" width="5" height="5"/>
    <rect class="cls-2" x="115" y="70" width="5" height="5"/>
    <rect class="cls-2" x="120" y="70" width="5" height="5"/>
    <rect class="cls-2" x="125" y="70" width="5" height="5"/>
    <rect class="cls-2" x="130" y="70" width="5" height="5"/>
    <rect class="cls-2" x="135" y="70" width="5" height="5"/>
  </g>
  <g>
    <rect class="cls-2" y="75" width="5" height="5"/>
    <rect class="cls-2" x="5" y="75" width="5" height="5"/>
    <rect class="cls-2" x="10" y="75" width="5" height="5"/>
    <rect class="cls-2" x="15" y="75" width="5" height="5"/>
    <rect class="cls-2" x="20" y="75" width="5" height="5"/>
    <rect class="cls-2" x="25" y="75" width="5" height="5"/>
    <rect class="cls-1" x="30" y="75" width="5" height="5"/>
    <rect class="cls-1" x="35" y="75" width="5" height="5"/>
    <rect class="cls-2" x="40" y="75" width="5" height="5"/>
    <rect class="cls-2" x="45" y="75" width="5" height="5"/>
    <rect class="cls-2" x="50" y="75" width="5" height="5"/>
    <rect class="cls-2" x="55" y="75" width="5" height="5"/>
    <rect class="cls-1" x="60" y="75" width="5" height="5"/>
    <rect class="cls-1" x="65" y="75" width="5" height="5"/>
    <rect class="cls-1" x="70" y="75" width="5" height="5"/>
    <rect class="cls-1" x="75" y="75" width="5" height="5"/>
    <rect class="cls-1" x="80" y="75" width="5" height="5"/>
    <rect class="cls-2" x="85" y="75" width="5" height="5"/>
    <rect class="cls-2" x="90" y="75" width="5" height="5"/>
    <rect class="cls-2" x="95" y="75" width="5" height="5"/>
    <rect class="cls-2" x="100" y="75" width="5" height="5"/>
    <rect class="cls-1" x="105" y="75" width="5" height="5"/>
    <rect class="cls-1" x="110" y="75" width="5" height="5"/>
    <rect class="cls-2" x="115" y="75" width="5" height="5"/>
    <rect class="cls-2" x="120" y="75" width="5" height="5"/>
    <rect class="cls-2" x="125" y="75" width="5" height="5"/>
    <rect class="cls-2" x="130" y="75" width="5" height="5"/>
    <rect class="cls-2" x="135" y="75" width="5" height="5"/>
  </g>
  <g>
    <rect class="cls-2" y="80" width="5" height="5"/>
    <rect class="cls-2" x="5" y="80" width="5" height="5"/>
    <rect class="cls-2" x="10" y="80" width="5" height="5"/>
    <rect class="cls-2" x="15" y="80" width="5" height="5"/>
    <rect class="cls-2" x="20" y="80" width="5" height="5"/>
    <rect class="cls-2" x="25" y="80" width="5" height="5"/>
    <rect class="cls-2" x="30" y="80" width="5" height="5"/>
    <rect class="cls-1" x="35" y="80" width="5" height="5"/>
    <rect class="cls-1" x="40" y="80" width="5" height="5"/>
    <rect class="cls-2" x="45" y="80" width="5" height="5"/>
    <rect class="cls-2" x="50" y="80" width="5" height="5"/>
    <rect class="cls-2" x="55" y="80" width="5" height="5"/>
    <rect class="cls-2" x="60" y="80" width="5" height="5"/>
    <rect class="cls-1" x="65" y="80" width="5" height="5"/>
    <rect class="cls-1" x="70" y="80" width="5" height="5"/>
    <rect class="cls-1" x="75" y="80" width="5" height="5"/>
    <rect class="cls-2" x="80" y="80" width="5" height="5"/>
    <rect class="cls-2" x="85" y="80" width="5" height="5"/>
    <rect class="cls-2" x="90" y="80" width="5" height="5"/>
    <rect class="cls-2" x="95" y="80" width="5" height="5"/>
    <rect class="cls-1" x="100" y="80" width="5" height="5"/>
    <rect class="cls-1" x="105" y="80" width="5" height="5"/>
    <rect class="cls-2" x="110" y="80" width="5" height="5"/>
    <rect class="cls-2" x="115" y="80" width="5" height="5"/>
    <rect class="cls-2" x="120" y="80" width="5" height="5"/>
    <rect class="cls-2" x="125" y="80" width="5" height="5"/>
    <rect class="cls-2" x="130" y="80" width="5" height="5"/>
    <rect class="cls-2" x="135" y="80" width="5" height="5"/>
  </g>
  <g>
    <rect class="cls-2" y="85" width="5" height="5"/>
    <rect class="cls-2" x="5" y="85" width="5" height="5"/>
    <rect class="cls-2" x="10" y="85" width="5" height="5"/>
    <rect class="cls-2" x="15" y="85" width="5" height="5"/>
    <rect class="cls-2" x="20" y="85" width="5" height="5"/>
    <rect class="cls-2" x="25" y="85" width="5" height="5"/>
    <rect class="cls-2" x="30" y="85" width="5" height="5"/>
    <rect class="cls-1" x="35" y="85" width="5" height="5"/>
    <rect class="cls-1" x="40" y="85" width="5" height="5"/>
    <rect class="cls-1" x="45" y="85" width="5" height="5"/>
    <rect class="cls-1" x="50" y="85" width="5" height="5"/>
    <rect class="cls-2" x="55" y="85" width="5" height="5"/>
    <rect class="cls-2" x="60" y="85" width="5" height="5"/>
    <rect class="cls-2" x="65" y="85" width="5" height="5"/>
    <rect class="cls-1" x="70" y="85" width="5" height="5"/>
    <rect class="cls-2" x="75" y="85" width="5" height="5"/>
    <rect class="cls-2" x="80" y="85" width="5" height="5"/>
    <rect class="cls-2" x="85" y="85" width="5" height="5"/>
    <rect class="cls-1" x="90" y="85" width="5" height="5"/>
    <rect class="cls-1" x="95" y="85" width="5" height="5"/>
    <rect class="cls-1" x="100" y="85" width="5" height="5"/>
    <rect class="cls-1" x="105" y="85" width="5" height="5"/>
    <rect class="cls-2" x="110" y="85" width="5" height="5"/>
    <rect class="cls-2" x="115" y="85" width="5" height="5"/>
    <rect class="cls-2" x="120" y="85" width="5" height="5"/>
    <rect class="cls-2" x="125" y="85" width="5" height="5"/>
    <rect class="cls-2" x="130" y="85" width="5" height="5"/>
    <rect class="cls-2" x="135" y="85" width="5" height="5"/>
  </g>
  <g>
    <rect class="cls-2" y="90" width="5" height="5"/>
    <rect class="cls-2" x="5" y="90" width="5" height="5"/>
    <rect class="cls-2" x="10" y="90" width="5" height="5"/>
    <rect class="cls-2" x="15" y="90" width="5" height="5"/>
    <rect class="cls-2" x="20" y="90" width="5" height="5"/>
    <rect class="cls-2" x="25" y="90" width="5" height="5"/>
    <rect class="cls-2" x="30" y="90" width="5" height="5"/>
    <rect class="cls-2" x="35" y="90" width="5" height="5"/>
    <rect class="cls-2" x="40" y="90" width="5" height="5"/>
    <rect class="cls-1" x="45" y="90" width="5" height="5"/>
    <rect class="cls-1" x="50" y="90" width="5" height="5"/>
    <rect class="cls-1" x="55" y="90" width="5" height="5"/>
    <rect class="cls-1" x="60" y="90" width="5" height="5"/>
    <rect class="cls-2" x="65" y="90" width="5" height="5"/>
    <rect class="cls-2" x="70" y="90" width="5" height="5"/>
    <rect class="cls-2" x="75" y="90" width="5" height="5"/>
    <rect class="cls-1" x="80" y="90" width="5" height="5"/>
    <rect class="cls-1" x="85" y="90" width="5" height="5"/>
    <rect class="cls-1" x="90" y="90" width="5" height="5"/>
    <rect class="cls-1" x="95" y="90" width="5" height="5"/>
    <rect class="cls-2" x="100" y="90" width="5" height="5"/>
    <rect class="cls-2" x="105" y="90" width="5" height="5"/>
    <rect class="cls-2" x="110" y="90" width="5" height="5"/>
    <rect class="cls-2" x="115" y="90" width="5" height="5"/>
    <rect class="cls-2" x="120" y="90" width="5" height="5"/>
    <rect class="cls-2" x="125" y="90" width="5" height="5"/>
    <rect class="cls-2" x="130" y="90" width="5" height="5"/>
    <rect class="cls-2" x="135" y="90" width="5" height="5"/>
  </g>
  <g>
    <rect class="cls-2" y="95" width="5" height="5"/>
    <rect class="cls-2" x="5" y="95" width="5" height="5"/>
    <rect class="cls-2" x="10" y="95" width="5" height="5"/>
    <rect class="cls-2" x="15" y="95" width="5" height="5"/>
    <rect class="cls-2" x="20" y="95" width="5" height="5"/>
    <rect class="cls-2" x="25" y="95" width="5" height="5"/>
    <rect class="cls-2" x="30" y="95" width="5" height="5"/>
    <rect class="cls-2" x="35" y="95" width="5" height="5"/>
    <rect class="cls-2" x="40" y="95" width="5" height="5"/>
    <rect class="cls-2" x="45" y="95" width="5" height="5"/>
    <rect class="cls-2" x="50" y="95" width="5" height="5"/>
    <rect class="cls-1" x="55" y="95" width="5" height="5"/>
    <rect class="cls-1" x="60" y="95" width="5" height="5"/>
    <rect class="cls-2" x="65" y="95" width="5" height="5"/>
    <rect class="cls-2" x="70" y="95" width="5" height="5"/>
    <rect class="cls-2" x="75" y="95" width="5" height="5"/>
    <rect class="cls-1" x="80" y="95" width="5" height="5"/>
    <rect class="cls-1" x="85" y="95" width="5" height="5"/>
    <rect class="cls-2" x="90" y="95" width="5" height="5"/>
    <rect class="cls-2" x="95" y="95" width="5" height="5"/>
    <rect class="cls-2" x="100" y="95" width="5" height="5"/>
    <rect class="cls-2" x="105" y="95" width="5" height="5"/>
    <rect class="cls-2" x="110" y="95" width="5" height="5"/>
    <rect class="cls-2" x="115" y="95" width="5" height="5"/>
    <rect class="cls-2" x="120" y="95" width="5" height="5"/>
    <rect class="cls-2" x="125" y="95" width="5" height="5"/>
    <rect class="cls-2" x="130" y="95" width="5" height="5"/>
    <rect class="cls-2" x="135" y="95" width="5" height="5"/>
  </g>
  <g>
    <rect class="cls-2" y="100" width="5" height="5"/>
    <rect class="cls-2" x="5" y="100" width="5" height="5"/>
    <rect class="cls-2" x="10" y="100" width="5" height="5"/>
    <rect class="cls-2" x="15" y="100" width="5" height="5"/>
    <rect class="cls-2" x="20" y="100" width="5" height="5"/>
    <rect class="cls-2" x="25" y="100" width="5" height="5"/>
    <rect class="cls-2" x="30" y="100" width="5" height="5"/>
    <rect class="cls-2" x="35" y="100" width="5" height="5"/>
    <rect class="cls-2" x="40" y="100" width="5" height="5"/>
    <rect class="cls-2" x="45" y="100" width="5" height="5"/>
    <rect class="cls-2" x="50" y="100" width="5" height="5"/>
    <rect class="cls-2" x="55" y="100" width="5" height="5"/>
    <rect class="cls-2" x="60" y="100" width="5" height="5"/>
    <rect class="cls-2" x="65" y="100" width="5" height="5"/>
    <rect class="cls-2" x="70" y="100" width="5" height="5"/>
    <rect class="cls-2" x="75" y="100" width="5" height="5"/>
    <rect class="cls-2" x="80" y="100" width="5" height="5"/>
    <rect class="cls-2" x="85" y="100" width="5" height="5"/>
    <rect class="cls-2" x="90" y="100" width="5" height="5"/>
    <rect class="cls-2" x="95" y="100" width="5" height="5"/>
    <rect class="cls-2" x="100" y="100" width="5" height="5"/>
    <rect class="cls-2" x="105" y="100" width="5" height="5"/>
    <rect class="cls-2" x="110" y="100" width="5" height="5"/>
    <rect class="cls-2" x="115" y="100" width="5" height="5"/>
    <rect class="cls-2" x="120" y="100" width="5" height="5"/>
    <rect class="cls-2" x="125" y="100" width="5" height="5"/>
    <rect class="cls-2" x="130" y="100" width="5" height="5"/>
    <rect class="cls-2" x="135" y="100" width="5" height="5"/>
  </g>
  <g>
    <rect class="cls-2" y="105" width="5" height="5"/>
    <rect class="cls-2" x="5" y="105" width="5" height="5"/>
    <rect class="cls-2" x="10" y="105" width="5" height="5"/>
    <rect class="cls-2" x="15" y="105" width="5" height="5"/>
    <rect class="cls-2" x="20" y="105" width="5" height="5"/>
    <rect class="cls-2" x="25" y="105" width="5" height="5"/>
    <rect class="cls-2" x="30" y="105" width="5" height="5"/>
    <rect class="cls-2" x="35" y="105" width="5" height="5"/>
    <rect class="cls-2" x="40" y="105" width="5" height="5"/>
    <rect class="cls-2" x="45" y="105" width="5" height="5"/>
    <rect class="cls-2" x="50" y="105" width="5" height="5"/>
    <rect class="cls-2" x="55" y="105" width="5" height="5"/>
    <rect class="cls-2" x="60" y="105" width="5" height="5"/>
    <rect class="cls-2" x="65" y="105" width="5" height="5"/>
    <rect class="cls-2" x="70" y="105" width="5" height="5"/>
    <rect class="cls-2" x="75" y="105" width="5" height="5"/>
    <rect class="cls-2" x="80" y="105" width="5" height="5"/>
    <rect class="cls-2" x="85" y="105" width="5" height="5"/>
    <rect class="cls-2" x="90" y="105" width="5" height="5"/>
    <rect class="cls-2" x="95" y="105" width="5" height="5"/>
    <rect class="cls-2" x="100" y="105" width="5" height="5"/>
    <rect class="cls-2" x="105" y="105" width="5" height="5"/>
    <rect class="cls-2" x="110" y="105" width="5" height="5"/>
    <rect class="cls-2" x="115" y="105" width="5" height="5"/>
    <rect class="cls-2" x="120" y="105" width="5" height="5"/>
    <rect class="cls-2" x="125" y="105" width="5" height="5"/>
    <rect class="cls-2" x="130" y="105" width="5" height="5"/>
    <rect class="cls-2" x="135" y="105" width="5" height="5"/>
  </g>
</svg>