<?xml version="1.0" encoding="UTF-8"?>
<svg id="Layer_1" data-name="Layer 1" xmlns="http://www.w3.org/2000/svg" viewBox="0 0 120 50">
  <defs>
    <style>
      .cls-1 {
        fill: #f73737;
      }

      .cls-2 {
        fill: none;
      }

      .cls-3 {
        fill: #3f78ea;
      }

      .cls-4 {
        fill: #ddd9d9;
      }
    </style>
  </defs>
  <rect class="cls-2" width="10" height="10"/>
  <rect class="cls-2" x="10" width="10" height="10"/>
  <rect class="cls-2" x="20" width="10" height="10"/>
  <rect class="cls-2" x="30" width="10" height="10"/>
  <rect class="cls-2" x="40" width="10" height="10"/>
  <rect class="cls-2" x="50" width="10" height="10"/>
  <rect class="cls-2" x="60" width="10" height="10"/>
  <rect class="cls-2" x="70" width="10" height="10"/>
  <rect class="cls-2" x="80" width="10" height="10"/>
  <rect class="cls-2" x="90" width="10" height="10"/>
  <rect class="cls-2" x="100" width="10" height="10"/>
  <rect class="cls-2" x="110" width="10" height="10"/>
  <rect class="cls-2" y="10" width="10" height="10"/>
  <rect class="cls-2" x="10" y="10" width="10" height="10"/>
  <rect class="cls-2" x="20" y="10" width="10" height="10"/>
  <rect class="cls-2" x="30" y="10" width="10" height="10"/>
  <rect class="cls-2" x="40" y="10" width="10" height="10"/>
  <rect class="cls-2" x="50" y="10" width="10" height="10"/>
  <rect class="cls-2" x="60" y="10" width="10" height="10"/>
  <rect class="cls-2" x="70" y="10" width="10" height="10"/>
  <rect class="cls-2" x="80" y="10" width="10" height="10"/>
  <rect class="cls-2" x="90" y="10" width="10" height="10"/>
  <rect class="cls-2" x="100" y="10" width="10" height="10"/>
  <rect class="cls-2" x="110" y="10" width="10" height="10"/>
  <rect class="cls-2" y="20" width="10" height="10"/>
  <rect class="cls-2" x="10" y="20" width="10" height="10"/>
  <rect class="cls-2" x="20" y="20" width="10" height="10"/>
  <rect class="cls-2" x="30" y="20" width="10" height="10"/>
  <rect class="cls-2" x="40" y="20" width="10" height="10"/>
  <rect class="cls-2" x="50" y="20" width="10" height="10"/>
  <rect class="cls-2" x="60" y="20" width="10" height="10"/>
  <rect class="cls-2" x="70" y="20" width="10" height="10"/>
  <rect class="cls-2" x="80" y="20" width="10" height="10"/>
  <rect class="cls-2" x="90" y="20" width="10" height="10"/>
  <rect class="cls-2" x="100" y="20" width="10" height="10"/>
  <rect class="cls-2" x="110" y="20" width="10" height="10"/>
  <rect class="cls-2" y="30" width="10" height="10"/>
  <rect class="cls-2" x="10" y="30" width="10" height="10"/>
  <rect class="cls-2" x="20" y="30" width="10" height="10"/>
  <rect class="cls-2" x="30" y="30" width="10" height="10"/>
  <rect class="cls-2" x="40" y="30" width="10" height="10"/>
  <rect class="cls-2" x="50" y="30" width="10" height="10"/>
  <rect class="cls-2" x="60" y="30" width="10" height="10"/>
  <rect class="cls-2" x="70" y="30" width="10" height="10"/>
  <rect class="cls-2" x="80" y="30" width="10" height="10"/>
  <rect class="cls-2" x="90" y="30" width="10" height="10"/>
  <rect class="cls-2" x="100" y="30" width="10" height="10"/>
  <rect class="cls-2" x="110" y="30" width="10" height="10"/>
  <rect class="cls-2" y="40" width="10" height="10"/>
  <rect class="cls-2" x="10" y="40" width="10" height="10"/>
  <rect class="cls-2" x="20" y="40" width="10" height="10"/>
  <rect class="cls-2" x="30" y="40" width="10" height="10"/>
  <rect class="cls-2" x="40" y="40" width="10" height="10"/>
  <rect class="cls-2" x="70" y="40" width="10" height="10"/>
  <rect class="cls-2" x="80" y="40" width="10" height="10"/>
  <rect class="cls-2" x="90" y="40" width="10" height="10"/>
  <rect class="cls-2" x="100" y="40" width="10" height="10"/>
  <rect class="cls-2" x="110" y="40" width="10" height="10"/>
  <rect class="cls-4" x="0" width="10" height="10"/>
  <rect class="cls-4" x="10" width="10" height="10"/>
  <rect class="cls-4" x="20" width="10" height="10"/>
  <rect class="cls-4" x="30" width="10" height="10"/>
  <rect class="cls-4" x="40" width="10" height="10"/>
  <rect class="cls-4" x="50" width="10" height="10"/>
  <rect class="cls-4" x="60" width="10" height="10"/>
  <rect class="cls-4" x="70" width="10" height="10"/>
  <rect class="cls-4" x="80" width="10" height="10"/>
  <rect class="cls-4" x="90" width="10" height="10"/>
  <rect class="cls-4" x="100" width="10" height="10"/>
  <rect class="cls-4" x="110" width="10" height="10"/>
  <rect class="cls-4" x="0" y="10" width="10" height="10"/>
  <rect class="cls-3" x="10" y="10" width="10" height="10"/>
  <rect class="cls-3" x="20" y="10" width="10" height="10"/>
  <rect class="cls-3" x="30" y="10" width="10" height="10"/>
  <rect class="cls-3" x="40" y="10" width="10" height="10"/>
  <rect class="cls-4" x="50" y="10" width="10" height="10"/>
  <rect class="cls-4" x="60" y="10" width="10" height="10"/>
  <rect class="cls-1" x="70" y="10" width="10" height="10"/>
  <rect class="cls-1" x="80" y="10" width="10" height="10"/>
  <rect class="cls-1" x="90" y="10" width="10" height="10"/>
  <rect class="cls-1" x="100" y="10" width="10" height="10"/>
  <rect class="cls-4" x="110" y="10" width="10" height="10"/>
  <rect class="cls-4" x="0" y="20" width="10" height="10"/>
  <rect class="cls-3" x="10" y="20" width="10" height="10"/>
  <rect class="cls-3" x="20" y="20" width="10" height="10"/>
  <rect class="cls-3" x="30" y="20" width="10" height="10"/>
  <rect class="cls-3" x="40" y="20" width="10" height="10"/>
  <rect class="cls-4" x="50" y="20" width="10" height="10"/>
  <rect class="cls-4" x="60" y="20" width="10" height="10"/>
  <rect class="cls-1" x="70" y="20" width="10" height="10"/>
  <rect class="cls-1" x="80" y="20" width="10" height="10"/>
  <rect class="cls-1" x="90" y="20" width="10" height="10"/>
  <rect class="cls-1" x="100" y="20" width="10" height="10"/>
  <rect class="cls-4" x="110" y="20" width="10" height="10"/>
  <rect class="cls-4" x="0" y="30" width="10" height="10"/>
  <rect class="cls-3" x="10" y="30" width="10" height="10"/>
  <rect class="cls-3" x="20" y="30" width="10" height="10"/>
  <rect class="cls-3" x="30" y="30" width="10" height="10"/>
  <rect class="cls-3" x="40" y="30" width="10" height="10"/>
  <rect class="cls-4" x="50" y="30" width="10" height="10"/>
  <rect class="cls-4" x="60" y="30" width="10" height="10"/>
  <rect class="cls-1" x="70" y="30" width="10" height="10"/>
  <rect class="cls-1" x="80" y="30" width="10" height="10"/>
  <rect class="cls-1" x="90" y="30" width="10" height="10"/>
  <rect class="cls-1" x="100" y="30" width="10" height="10"/>
  <rect class="cls-4" x="110" y="30" width="10" height="10"/>
  <rect class="cls-4" x="0" y="40" width="10" height="10"/>
  <rect class="cls-4" x="10" y="40" width="10" height="10"/>
  <rect class="cls-4" x="20" y="40" width="10" height="10"/>
  <rect class="cls-4" x="30" y="40" width="10" height="10"/>
  <rect class="cls-4" x="40" y="40" width="10" height="10"/>
  <rect class="cls-4" x="70" y="40" width="10" height="10"/>
  <rect class="cls-4" x="80" y="40" width="10" height="10"/>
  <rect class="cls-4" x="90" y="40" width="10" height="10"/>
  <rect class="cls-4" x="100" y="40" width="10" height="10"/>
  <rect class="cls-4" x="110" y="40" width="10" height="10"/>
</svg>