<?xml version="1.0" encoding="UTF-8"?>
<svg id="Layer_1" data-name="Layer 1" xmlns="http://www.w3.org/2000/svg" viewBox="0 0 160 210">
  <defs>
    <style>
      .cls-1 {
        fill: #0f403f;
      }

      .cls-2 {
        fill: none;
        stroke: #000;
        stroke-miterlimit: 10;
        stroke-width: .1px;
      }

      .cls-3 {
        fill: #7fdbda;
      }
    </style>
  </defs>
  <g>
    <path d="m69.9.1v9.8h-9.8V.1h9.8m.1-.1h-10v10h10V0h0Z"/>
    <path d="m79.9.1v9.8h-9.8V.1h9.8m.1-.1h-10v10h10V0h0Z"/>
    <path d="m89.9.1v9.8h-9.8V.1h9.8m.1-.1h-10v10h10V0h0Z"/>
    <path d="m99.9.1v9.8h-9.8V.1h9.8m.1-.1h-10v10h10V0h0Z"/>
    <path d="m59.9,10.1v9.8h-9.8v-9.8h9.8m.1-.1h-10v10h10v-10h0Z"/>
    <path d="m69.9,10.1v9.8h-9.8v-9.8h9.8m.1-.1h-10v10h10v-10h0Z"/>
    <path d="m79.9,10.1v9.8h-9.8v-9.8h9.8m.1-.1h-10v10h10v-10h0Z"/>
    <path d="m89.9,10.1v9.8h-9.8v-9.8h9.8m.1-.1h-10v10h10v-10h0Z"/>
    <path d="m99.9,10.1v9.8h-9.8v-9.8h9.8m.1-.1h-10v10h10v-10h0Z"/>
    <path d="m109.9,10.1v9.8h-9.8v-9.8h9.8m.1-.1h-10v10h10v-10h0Z"/>
    <path d="m49.9,20.1v9.8h-9.8v-9.8h9.8m.1-.1h-10v10h10v-10h0Z"/>
    <path d="m59.9,20.1v9.8h-9.8v-9.8h9.8m.1-.1h-10v10h10v-10h0Z"/>
    <path d="m69.9,20.1v9.8h-9.8v-9.8h9.8m.1-.1h-10v10h10v-10h0Z"/>
    <path d="m79.9,20.1v9.8h-9.8v-9.8h9.8m.1-.1h-10v10h10v-10h0Z"/>
    <path d="m89.9,20.1v9.8h-9.8v-9.8h9.8m.1-.1h-10v10h10v-10h0Z"/>
    <path d="m99.9,20.1v9.8h-9.8v-9.8h9.8m.1-.1h-10v10h10v-10h0Z"/>
    <path d="m109.9,20.1v9.8h-9.8v-9.8h9.8m.1-.1h-10v10h10v-10h0Z"/>
    <path d="m119.9,20.1v9.8h-9.8v-9.8h9.8m.1-.1h-10v10h10v-10h0Z"/>
    <path d="m39.9,30.1v9.8h-9.8v-9.8h9.8m.1-.1h-10v10h10v-10h0Z"/>
    <path d="m49.9,30.1v9.8h-9.8v-9.8h9.8m.1-.1h-10v10h10v-10h0Z"/>
    <path d="m59.9,30.1v9.8h-9.8v-9.8h9.8m.1-.1h-10v10h10v-10h0Z"/>
    <path d="m69.9,30.1v9.8h-9.8v-9.8h9.8m.1-.1h-10v10h10v-10h0Z"/>
    <path d="m79.9,30.1v9.8h-9.8v-9.8h9.8m.1-.1h-10v10h10v-10h0Z"/>
    <path d="m89.9,30.1v9.8h-9.8v-9.8h9.8m.1-.1h-10v10h10v-10h0Z"/>
    <path d="m99.9,30.1v9.8h-9.8v-9.8h9.8m.1-.1h-10v10h10v-10h0Z"/>
    <path d="m109.9,30.1v9.8h-9.8v-9.8h9.8m.1-.1h-10v10h10v-10h0Z"/>
    <path d="m119.9,30.1v9.8h-9.8v-9.8h9.8m.1-.1h-10v10h10v-10h0Z"/>
    <path d="m129.9,30.1v9.8h-9.8v-9.8h9.8m.1-.1h-10v10h10v-10h0Z"/>
    <path d="m29.9,40.1v9.8h-9.8v-9.8h9.8m.1-.1h-10v10h10v-10h0Z"/>
    <path d="m39.9,40.1v9.8h-9.8v-9.8h9.8m.1-.1h-10v10h10v-10h0Z"/>
    <path d="m49.9,40.1v9.8h-9.8v-9.8h9.8m.1-.1h-10v10h10v-10h0Z"/>
    <path d="m59.9,40.1v9.8h-9.8v-9.8h9.8m.1-.1h-10v10h10v-10h0Z"/>
    <path d="m69.9,40.1v9.8h-9.8v-9.8h9.8m.1-.1h-10v10h10v-10h0Z"/>
    <path d="m79.9,40.1v9.8h-9.8v-9.8h9.8m.1-.1h-10v10h10v-10h0Z"/>
    <path d="m89.9,40.1v9.8h-9.8v-9.8h9.8m.1-.1h-10v10h10v-10h0Z"/>
    <path d="m99.9,40.1v9.8h-9.8v-9.8h9.8m.1-.1h-10v10h10v-10h0Z"/>
    <path d="m109.9,40.1v9.8h-9.8v-9.8h9.8m.1-.1h-10v10h10v-10h0Z"/>
    <path d="m119.9,40.1v9.8h-9.8v-9.8h9.8m.1-.1h-10v10h10v-10h0Z"/>
    <path d="m129.9,40.1v9.8h-9.8v-9.8h9.8m.1-.1h-10v10h10v-10h0Z"/>
    <path d="m139.9,40.1v9.8h-9.8v-9.8h9.8m.1-.1h-10v10h10v-10h0Z"/>
    <path d="m19.9,50.1v9.8h-9.8v-9.8h9.8m.1-.1h-10v10h10v-10h0Z"/>
    <path d="m29.9,50.1v9.8h-9.8v-9.8h9.8m.1-.1h-10v10h10v-10h0Z"/>
    <path d="m39.9,50.1v9.8h-9.8v-9.8h9.8m.1-.1h-10v10h10v-10h0Z"/>
    <path d="m49.9,50.1v9.8h-9.8v-9.8h9.8m.1-.1h-10v10h10v-10h0Z"/>
    <path d="m59.9,50.1v9.8h-9.8v-9.8h9.8m.1-.1h-10v10h10v-10h0Z"/>
    <path d="m69.9,50.1v9.8h-9.8v-9.8h9.8m.1-.1h-10v10h10v-10h0Z"/>
    <path d="m79.9,50.1v9.8h-9.8v-9.8h9.8m.1-.1h-10v10h10v-10h0Z"/>
    <path d="m89.9,50.1v9.8h-9.8v-9.8h9.8m.1-.1h-10v10h10v-10h0Z"/>
    <path d="m99.9,50.1v9.8h-9.8v-9.8h9.8m.1-.1h-10v10h10v-10h0Z"/>
    <path d="m109.9,50.1v9.8h-9.8v-9.8h9.8m.1-.1h-10v10h10v-10h0Z"/>
    <path d="m119.9,50.1v9.8h-9.8v-9.8h9.8m.1-.1h-10v10h10v-10h0Z"/>
    <path d="m129.9,50.1v9.8h-9.8v-9.8h9.8m.1-.1h-10v10h10v-10h0Z"/>
    <path d="m139.9,50.1v9.8h-9.8v-9.8h9.8m.1-.1h-10v10h10v-10h0Z"/>
    <path d="m149.9,50.1v9.8h-9.8v-9.8h9.8m.1-.1h-10v10h10v-10h0Z"/>
    <path d="m19.9,60.1v9.8h-9.8v-9.8h9.8m.1-.1h-10v10h10v-10h0Z"/>
    <path d="m29.9,60.1v9.8h-9.8v-9.8h9.8m.1-.1h-10v10h10v-10h0Z"/>
    <path d="m39.9,60.1v9.8h-9.8v-9.8h9.8m.1-.1h-10v10h10v-10h0Z"/>
    <path d="m49.9,60.1v9.8h-9.8v-9.8h9.8m.1-.1h-10v10h10v-10h0Z"/>
    <path d="m59.9,60.1v9.8h-9.8v-9.8h9.8m.1-.1h-10v10h10v-10h0Z"/>
    <path d="m69.9,60.1v9.8h-9.8v-9.8h9.8m.1-.1h-10v10h10v-10h0Z"/>
    <path d="m79.9,60.1v9.8h-9.8v-9.8h9.8m.1-.1h-10v10h10v-10h0Z"/>
    <path d="m89.9,60.1v9.8h-9.8v-9.8h9.8m.1-.1h-10v10h10v-10h0Z"/>
    <path d="m99.9,60.1v9.8h-9.8v-9.8h9.8m.1-.1h-10v10h10v-10h0Z"/>
    <path d="m109.9,60.1v9.8h-9.8v-9.8h9.8m.1-.1h-10v10h10v-10h0Z"/>
    <path d="m119.9,60.1v9.8h-9.8v-9.8h9.8m.1-.1h-10v10h10v-10h0Z"/>
    <path d="m129.9,60.1v9.8h-9.8v-9.8h9.8m.1-.1h-10v10h10v-10h0Z"/>
    <path d="m139.9,60.1v9.8h-9.8v-9.8h9.8m.1-.1h-10v10h10v-10h0Z"/>
    <path d="m149.9,60.1v9.8h-9.8v-9.8h9.8m.1-.1h-10v10h10v-10h0Z"/>
    <path d="m19.9,70.1v9.8h-9.8v-9.8h9.8m.1-.1h-10v10h10v-10h0Z"/>
    <path d="m29.9,70.1v9.8h-9.8v-9.8h9.8m.1-.1h-10v10h10v-10h0Z"/>
    <path d="m39.9,70.1v9.8h-9.8v-9.8h9.8m.1-.1h-10v10h10v-10h0Z"/>
    <path d="m129.9,70.1v9.8h-9.8v-9.8h9.8m.1-.1h-10v10h10v-10h0Z"/>
    <path d="m139.9,70.1v9.8h-9.8v-9.8h9.8m.1-.1h-10v10h10v-10h0Z"/>
    <path d="m149.9,70.1v9.8h-9.8v-9.8h9.8m.1-.1h-10v10h10v-10h0Z"/>
    <path d="m19.9,80.1v9.8h-9.8v-9.8h9.8m.1-.1h-10v10h10v-10h0Z"/>
    <path d="m29.9,80.1v9.8h-9.8v-9.8h9.8m.1-.1h-10v10h10v-10h0Z"/>
    <path d="m139.9,80.1v9.8h-9.8v-9.8h9.8m.1-.1h-10v10h10v-10h0Z"/>
    <path d="m149.9,80.1v9.8h-9.8v-9.8h9.8m.1-.1h-10v10h10v-10h0Z"/>
    <path d="m19.9,90.1v9.8h-9.8v-9.8h9.8m.1-.1h-10v10h10v-10h0Z"/>
    <path d="m29.9,90.1v9.8h-9.8v-9.8h9.8m.1-.1h-10v10h10v-10h0Z"/>
    <path d="m139.9,90.1v9.8h-9.8v-9.8h9.8m.1-.1h-10v10h10v-10h0Z"/>
    <path d="m149.9,90.1v9.8h-9.8v-9.8h9.8m.1-.1h-10v10h10v-10h0Z"/>
    <path d="m19.9,100.1v9.8h-9.8v-9.8h9.8m.1-.1h-10v10h10v-10h0Z"/>
    <path d="m29.9,100.1v9.8h-9.8v-9.8h9.8m.1-.1h-10v10h10v-10h0Z"/>
    <path d="m139.9,100.1v9.8h-9.8v-9.8h9.8m.1-.1h-10v10h10v-10h0Z"/>
    <path d="m149.9,100.1v9.8h-9.8v-9.8h9.8m.1-.1h-10v10h10v-10h0Z"/>
    <path d="m19.9,110.1v9.8h-9.8v-9.8h9.8m.1-.1h-10v10h10v-10h0Z"/>
    <path d="m29.9,110.1v9.8h-9.8v-9.8h9.8m.1-.1h-10v10h10v-10h0Z"/>
    <path d="m139.9,110.1v9.8h-9.8v-9.8h9.8m.1-.1h-10v10h10v-10h0Z"/>
    <path d="m149.9,110.1v9.8h-9.8v-9.8h9.8m.1-.1h-10v10h10v-10h0Z"/>
    <path d="m19.9,120.1v9.8h-9.8v-9.8h9.8m.1-.1h-10v10h10v-10h0Z"/>
    <path d="m29.9,120.1v9.8h-9.8v-9.8h9.8m.1-.1h-10v10h10v-10h0Z"/>
    <path d="m139.9,120.1v9.8h-9.8v-9.8h9.8m.1-.1h-10v10h10v-10h0Z"/>
    <path d="m149.9,120.1v9.8h-9.8v-9.8h9.8m.1-.1h-10v10h10v-10h0Z"/>
    <path d="m19.9,130.1v9.8h-9.8v-9.8h9.8m.1-.1h-10v10h10v-10h0Z"/>
    <path d="m29.9,130.1v9.8h-9.8v-9.8h9.8m.1-.1h-10v10h10v-10h0Z"/>
    <path d="m139.9,130.1v9.8h-9.8v-9.8h9.8m.1-.1h-10v10h10v-10h0Z"/>
    <path d="m149.9,130.1v9.8h-9.8v-9.8h9.8m.1-.1h-10v10h10v-10h0Z"/>
    <path d="m19.9,140.1v9.8h-9.8v-9.8h9.8m.1-.1h-10v10h10v-10h0Z"/>
    <path d="m29.9,140.1v9.8h-9.8v-9.8h9.8m.1-.1h-10v10h10v-10h0Z"/>
    <path d="m139.9,140.1v9.8h-9.8v-9.8h9.8m.1-.1h-10v10h10v-10h0Z"/>
    <path d="m149.9,140.1v9.8h-9.8v-9.8h9.8m.1-.1h-10v10h10v-10h0Z"/>
    <path d="m19.9,150.1v9.8h-9.8v-9.8h9.8m.1-.1h-10v10h10v-10h0Z"/>
    <path d="m29.9,150.1v9.8h-9.8v-9.8h9.8m.1-.1h-10v10h10v-10h0Z"/>
    <path d="m139.9,150.1v9.8h-9.8v-9.8h9.8m.1-.1h-10v10h10v-10h0Z"/>
    <path d="m149.9,150.1v9.8h-9.8v-9.8h9.8m.1-.1h-10v10h10v-10h0Z"/>
    <path d="m19.9,160.1v9.8h-9.8v-9.8h9.8m.1-.1h-10v10h10v-10h0Z"/>
    <path d="m29.9,160.1v9.8h-9.8v-9.8h9.8m.1-.1h-10v10h10v-10h0Z"/>
    <path d="m139.9,160.1v9.8h-9.8v-9.8h9.8m.1-.1h-10v10h10v-10h0Z"/>
    <path d="m149.9,160.1v9.8h-9.8v-9.8h9.8m.1-.1h-10v10h10v-10h0Z"/>
    <path d="m19.9,170.1v9.8h-9.8v-9.8h9.8m.1-.1h-10v10h10v-10h0Z"/>
    <path d="m29.9,170.1v9.8h-9.8v-9.8h9.8m.1-.1h-10v10h10v-10h0Z"/>
    <path d="m139.9,170.1v9.8h-9.8v-9.8h9.8m.1-.1h-10v10h10v-10h0Z"/>
    <path d="m149.9,170.1v9.8h-9.8v-9.8h9.8m.1-.1h-10v10h10v-10h0Z"/>
    <polyline class="cls-2" points="10 190 10 180 20 180"/>
    <line class="cls-2" x1="20" y1="180" x2="30" y2="180"/>
    <line class="cls-2" x1="130" y1="180" x2="140" y2="180"/>
    <polyline class="cls-2" points="140 180 150 180 150 190"/>
    <path d="m9.9,190.1v9.8H.1v-9.8h9.8m.1-.1H0v10h10v-10h0Z"/>
    <line class="cls-2" x1="10" y1="200" x2="10" y2="190"/>
    <line class="cls-2" x1="150" y1="190" x2="150" y2="200"/>
    <path d="m159.9,190.1v9.8h-9.8v-9.8h9.8m.1-.1h-10v10h10v-10h0Z"/>
    <line class="cls-2" x1="10" y1="210" x2="10" y2="200"/>
    <line class="cls-2" x1="150" y1="200" x2="150" y2="210"/>
  </g>
  <polyline points="70 0 70 10 60 10 60 0"/>
  <polyline points="80 0 80 10 70 10 70 0"/>
  <polyline points="90 0 90 10 80 10 80 0"/>
  <polyline points="100 0 100 10 90 10 90 0"/>
  <rect x="50" y="10" width="10" height="10"/>
  <rect class="cls-3" x="60" y="10" width="10" height="10"/>
  <rect class="cls-1" x="70" y="10" width="10" height="10"/>
  <rect class="cls-3" x="80" y="10" width="10" height="10"/>
  <rect class="cls-1" x="90" y="10" width="10" height="10"/>
  <rect x="100" y="10" width="10" height="10"/>
  <rect x="40" y="20" width="10" height="10"/>
  <rect class="cls-3" x="50" y="20" width="10" height="10"/>
  <rect class="cls-1" x="60" y="20" width="10" height="10"/>
  <rect class="cls-3" x="70" y="20" width="10" height="10"/>
  <rect class="cls-1" x="80" y="20" width="10" height="10"/>
  <rect class="cls-3" x="90" y="20" width="10" height="10"/>
  <rect class="cls-1" x="100" y="20" width="10" height="10"/>
  <rect x="110" y="20" width="10" height="10"/>
  <rect x="30" y="30" width="10" height="10"/>
  <rect class="cls-3" x="40" y="30" width="10" height="10"/>
  <rect class="cls-1" x="50" y="30" width="10" height="10"/>
  <rect class="cls-3" x="60" y="30" width="10" height="10"/>
  <rect class="cls-1" x="70" y="30" width="10" height="10"/>
  <rect class="cls-3" x="80" y="30" width="10" height="10"/>
  <rect class="cls-1" x="90" y="30" width="10" height="10"/>
  <rect class="cls-3" x="100" y="30" width="10" height="10"/>
  <rect class="cls-1" x="110" y="30" width="10" height="10"/>
  <rect x="120" y="30" width="10" height="10"/>
  <rect x="20" y="40" width="10" height="10"/>
  <rect class="cls-3" x="30" y="40" width="10" height="10"/>
  <rect class="cls-1" x="40" y="40" width="10" height="10"/>
  <rect class="cls-3" x="50" y="40" width="10" height="10"/>
  <rect class="cls-1" x="60" y="40" width="10" height="10"/>
  <rect class="cls-3" x="70" y="40" width="10" height="10"/>
  <rect class="cls-1" x="80" y="40" width="10" height="10"/>
  <rect class="cls-3" x="90" y="40" width="10" height="10"/>
  <rect class="cls-1" x="100" y="40" width="10" height="10"/>
  <rect class="cls-3" x="110" y="40" width="10" height="10"/>
  <rect class="cls-1" x="120" y="40" width="10" height="10"/>
  <rect x="130" y="40" width="10" height="10"/>
  <rect x="10" y="50" width="10" height="10"/>
  <rect class="cls-3" x="20" y="50" width="10" height="10"/>
  <rect class="cls-1" x="30" y="50" width="10" height="10"/>
  <rect class="cls-3" x="40" y="50" width="10" height="10"/>
  <rect class="cls-1" x="50" y="50" width="10" height="10"/>
  <rect class="cls-3" x="60" y="50" width="10" height="10"/>
  <rect class="cls-1" x="70" y="50" width="10" height="10"/>
  <rect class="cls-3" x="80" y="50" width="10" height="10"/>
  <rect class="cls-1" x="90" y="50" width="10" height="10"/>
  <rect class="cls-3" x="100" y="50" width="10" height="10"/>
  <rect class="cls-1" x="110" y="50" width="10" height="10"/>
  <rect class="cls-3" x="120" y="50" width="10" height="10"/>
  <rect class="cls-1" x="130" y="50" width="10" height="10"/>
  <rect x="140" y="50" width="10" height="10"/>
  <rect x="10" y="60" width="10" height="10"/>
  <rect class="cls-3" x="20" y="60" width="10" height="10"/>
  <rect class="cls-3" x="30" y="60" width="10" height="10"/>
  <rect class="cls-3" x="40" y="60" width="10" height="10"/>
  <rect class="cls-3" x="50" y="60" width="10" height="10"/>
  <rect class="cls-3" x="60" y="60" width="10" height="10"/>
  <rect class="cls-3" x="70" y="60" width="10" height="10"/>
  <rect class="cls-3" x="80" y="60" width="10" height="10"/>
  <rect class="cls-3" x="90" y="60" width="10" height="10"/>
  <rect class="cls-3" x="100" y="60" width="10" height="10"/>
  <rect class="cls-3" x="110" y="60" width="10" height="10"/>
  <rect class="cls-3" x="120" y="60" width="10" height="10"/>
  <rect class="cls-3" x="130" y="60" width="10" height="10"/>
  <rect x="140" y="60" width="10" height="10"/>
  <rect x="10" y="70" width="10" height="10"/>
  <rect class="cls-3" x="20" y="70" width="10" height="10"/>
  <rect class="cls-3" x="30" y="70" width="10" height="10"/>
  <rect class="cls-3" x="120" y="70" width="10" height="10"/>
  <rect class="cls-3" x="130" y="70" width="10" height="10"/>
  <rect x="140" y="70" width="10" height="10"/>
  <rect x="10" y="80" width="10" height="10"/>
  <rect class="cls-3" x="20" y="80" width="10" height="10"/>
  <rect class="cls-3" x="130" y="80" width="10" height="10"/>
  <rect x="140" y="80" width="10" height="10"/>
  <rect x="10" y="90" width="10" height="10"/>
  <rect class="cls-3" x="20" y="90" width="10" height="10"/>
  <rect class="cls-3" x="130" y="90" width="10" height="10"/>
  <rect x="140" y="90" width="10" height="10"/>
  <rect x="10" y="100" width="10" height="10"/>
  <rect class="cls-3" x="20" y="100" width="10" height="10"/>
  <rect class="cls-3" x="130" y="100" width="10" height="10"/>
  <rect x="140" y="100" width="10" height="10"/>
  <rect x="10" y="110" width="10" height="10"/>
  <rect class="cls-3" x="20" y="110" width="10" height="10"/>
  <rect class="cls-3" x="130" y="110" width="10" height="10"/>
  <rect x="140" y="110" width="10" height="10"/>
  <rect x="10" y="120" width="10" height="10"/>
  <rect class="cls-3" x="20" y="120" width="10" height="10"/>
  <rect class="cls-3" x="130" y="120" width="10" height="10"/>
  <rect x="140" y="120" width="10" height="10"/>
  <rect x="10" y="130" width="10" height="10"/>
  <rect class="cls-3" x="20" y="130" width="10" height="10"/>
  <rect class="cls-3" x="130" y="130" width="10" height="10"/>
  <rect x="140" y="130" width="10" height="10"/>
  <rect x="10" y="140" width="10" height="10"/>
  <rect class="cls-3" x="20" y="140" width="10" height="10"/>
  <rect class="cls-3" x="130" y="140" width="10" height="10"/>
  <rect x="140" y="140" width="10" height="10"/>
  <rect x="10" y="150" width="10" height="10"/>
  <rect class="cls-3" x="20" y="150" width="10" height="10"/>
  <rect class="cls-3" x="130" y="150" width="10" height="10"/>
  <rect x="140" y="150" width="10" height="10"/>
  <rect x="10" y="160" width="10" height="10"/>
  <rect class="cls-3" x="20" y="160" width="10" height="10"/>
  <rect class="cls-3" x="130" y="160" width="10" height="10"/>
  <rect x="140" y="160" width="10" height="10"/>
  <rect x="10" y="170" width="10" height="10"/>
  <rect class="cls-3" x="20" y="170" width="10" height="10"/>
  <rect class="cls-3" x="130" y="170" width="10" height="10"/>
  <rect x="140" y="170" width="10" height="10"/>
  <rect x="10" y="180" width="10" height="10"/>
  <rect class="cls-3" x="20" y="180" width="10" height="10"/>
  <rect class="cls-3" x="130" y="180" width="10" height="10"/>
  <rect x="140" y="180" width="10" height="10"/>
  <polyline points="0 190 10 190 10 200 0 200"/>
  <rect class="cls-3" x="10" y="190" width="10" height="10"/>
  <rect class="cls-3" x="20" y="190" width="10" height="10"/>
  <rect class="cls-3" x="30" y="190" width="10" height="10"/>
  <rect class="cls-3" x="120" y="190" width="10" height="10"/>
  <rect class="cls-3" x="130" y="190" width="10" height="10"/>
  <rect class="cls-3" x="140" y="190" width="10" height="10"/>
  <polyline points="160 200 150 200 150 190 160 190"/>
  <polyline points="10 210 10 200 20 200 20 210"/>
  <polyline points="140 210 140 200 150 200 150 210"/>
</svg>