<?xml version="1.0" encoding="UTF-8"?>
<svg id="Layer_1" data-name="Layer 1" xmlns="http://www.w3.org/2000/svg" viewBox="0 0 90 40">
  <defs>
    <style>
      .cls-1 {
        fill: #ef183d;
      }

      .cls-2 {
        fill: #ff3e3e;
      }

      .cls-3 {
        fill: none;
      }

      .cls-4 {
        fill: #ea596e;
      }

      .cls-5 {
        fill: #2b2930;
      }
    </style>
  </defs>
  <rect class="cls-3" x="10" width="10" height="10"/>
  <rect class="cls-3" x="20" width="10" height="10"/>
  <rect class="cls-3" x="60" width="10" height="10"/>
  <rect class="cls-3" x="70" width="10" height="10"/>
  <rect class="cls-3" x="10" y="10" width="10" height="10"/>
  <rect class="cls-3" x="20" y="10" width="10" height="10"/>
  <rect class="cls-3" x="30" y="10" width="10" height="10"/>
  <rect class="cls-3" x="40" y="10" width="10" height="10"/>
  <rect class="cls-3" x="50" y="10" width="10" height="10"/>
  <rect class="cls-3" x="60" y="10" width="10" height="10"/>
  <rect class="cls-3" x="70" y="10" width="10" height="10"/>
  <polyline class="cls-3" points="0 20 10 20 10 30"/>
  <rect class="cls-3" x="10" y="20" width="10" height="10"/>
  <rect class="cls-3" x="20" y="20" width="10" height="10"/>
  <rect class="cls-3" x="30" y="20" width="10" height="10"/>
  <rect class="cls-3" x="40" y="20" width="10" height="10"/>
  <rect class="cls-3" x="50" y="20" width="10" height="10"/>
  <rect class="cls-3" x="60" y="20" width="10" height="10"/>
  <rect class="cls-3" x="70" y="20" width="10" height="10"/>
  <rect class="cls-3" x="10" y="30" width="10" height="10"/>
  <rect class="cls-3" x="20" y="30" width="10" height="10"/>
  <polyline class="cls-3" points="30 40 30 30 40 30"/>
  <polyline class="cls-3" points="50 30 60 30 60 40"/>
  <rect class="cls-3" x="60" y="30" width="10" height="10"/>
  <rect class="cls-3" x="70" y="30" width="10" height="10"/>
  <polyline class="cls-5" points="15 0 15 5 10 5 10 0"/>
  <polyline class="cls-5" points="20 0 20 5 15 5 15 0"/>
  <polyline class="cls-5" points="25 0 25 5 20 5 20 0"/>
  <polyline class="cls-5" points="30 0 30 5 25 5 25 0"/>
  <polyline class="cls-5" points="65 0 65 5 60 5 60 0"/>
  <polyline class="cls-5" points="70 0 70 5 65 5 65 0"/>
  <polyline class="cls-5" points="75 0 75 5 70 5 70 0"/>
  <polyline class="cls-5" points="80 0 80 5 75 5 75 0"/>
  <rect class="cls-5" x="5" y="5" width="5" height="5"/>
  <rect class="cls-4" x="10" y="5" width="5" height="5"/>
  <rect class="cls-4" x="15" y="5" width="5" height="5"/>
  <rect class="cls-4" x="20" y="5" width="5" height="5"/>
  <rect class="cls-4" x="25" y="5" width="5" height="5"/>
  <rect class="cls-5" x="30" y="5" width="5" height="5"/>
  <rect class="cls-5" x="55" y="5" width="5" height="5"/>
  <rect class="cls-1" x="60" y="5" width="5" height="5"/>
  <rect class="cls-4" x="65" y="5" width="5" height="5"/>
  <rect class="cls-4" x="70" y="5" width="5" height="5"/>
  <rect class="cls-4" x="75" y="5" width="5" height="5"/>
  <rect class="cls-5" x="80" y="5" width="5" height="5"/>
  <rect class="cls-5" x="5" y="10" width="5" height="5"/>
  <rect class="cls-1" x="10" y="10" width="5" height="5"/>
  <rect class="cls-1" x="15" y="10" width="5" height="5"/>
  <rect class="cls-4" x="20" y="10" width="5" height="5"/>
  <rect class="cls-4" x="25" y="10" width="5" height="5"/>
  <rect class="cls-4" x="30" y="10" width="5" height="5"/>
  <rect class="cls-5" x="35" y="10" width="5" height="5"/>
  <rect class="cls-5" x="40" y="10" width="5" height="5"/>
  <rect class="cls-5" x="45" y="10" width="5" height="5"/>
  <rect class="cls-5" x="50" y="10" width="5" height="5"/>
  <rect class="cls-1" x="55" y="10" width="5" height="5"/>
  <rect class="cls-1" x="60" y="10" width="5" height="5"/>
  <rect class="cls-4" x="65" y="10" width="5" height="5"/>
  <rect class="cls-4" x="70" y="10" width="5" height="5"/>
  <rect class="cls-4" x="75" y="10" width="5" height="5"/>
  <rect class="cls-5" x="80" y="10" width="5" height="5"/>
  <rect class="cls-5" x="0" y="15" width="5" height="5"/>
  <rect class="cls-1" x="5" y="15" width="5" height="5"/>
  <rect class="cls-1" x="10" y="15" width="5" height="5"/>
  <rect class="cls-1" x="15" y="15" width="5" height="5"/>
  <rect class="cls-1" x="20" y="15" width="5" height="5"/>
  <rect class="cls-5" x="25" y="15" width="5" height="5"/>
  <rect class="cls-1" x="30" y="15" width="5" height="5"/>
  <rect class="cls-5" x="35" y="15" width="5" height="5"/>
  <rect class="cls-1" x="40" y="15" width="5" height="5"/>
  <rect class="cls-1" x="45" y="15" width="5" height="5"/>
  <rect class="cls-5" x="50" y="15" width="5" height="5"/>
  <rect class="cls-1" x="55" y="15" width="5" height="5"/>
  <rect class="cls-5" x="60" y="15" width="5" height="5"/>
  <rect class="cls-1" x="65" y="15" width="5" height="5"/>
  <rect class="cls-1" x="70" y="15" width="5" height="5"/>
  <rect class="cls-1" x="75" y="15" width="5" height="5"/>
  <rect class="cls-4" x="80" y="15" width="5" height="5"/>
  <rect class="cls-5" x="85" y="15" width="5" height="5"/>
  <rect class="cls-5" x="0" y="20" width="5" height="5"/>
  <rect class="cls-2" x="5" y="20" width="5" height="5"/>
  <rect class="cls-1" x="10" y="20" width="5" height="5"/>
  <rect class="cls-1" x="15" y="20" width="5" height="5"/>
  <rect class="cls-1" x="20" y="20" width="5" height="5"/>
  <rect class="cls-5" x="25" y="20" width="5" height="5"/>
  <rect class="cls-5" x="30" y="20" width="5" height="5"/>
  <rect class="cls-5" x="35" y="20" width="5" height="5"/>
  <rect class="cls-1" x="40" y="20" width="5" height="5"/>
  <rect class="cls-1" x="45" y="20" width="5" height="5"/>
  <rect class="cls-5" x="50" y="20" width="5" height="5"/>
  <rect class="cls-5" x="55" y="20" width="5" height="5"/>
  <rect class="cls-5" x="60" y="20" width="5" height="5"/>
  <rect class="cls-1" x="65" y="20" width="5" height="5"/>
  <rect class="cls-1" x="70" y="20" width="5" height="5"/>
  <rect class="cls-1" x="75" y="20" width="5" height="5"/>
  <rect class="cls-2" x="80" y="20" width="5" height="5"/>
  <rect class="cls-5" x="85" y="20" width="5" height="5"/>
  <rect class="cls-5" x="5" y="25" width="5" height="5"/>
  <rect class="cls-1" x="10" y="25" width="5" height="5"/>
  <rect class="cls-1" x="15" y="25" width="5" height="5"/>
  <rect class="cls-1" x="20" y="25" width="5" height="5"/>
  <rect class="cls-2" x="25" y="25" width="5" height="5"/>
  <rect class="cls-2" x="30" y="25" width="5" height="5"/>
  <rect class="cls-5" x="35" y="25" width="5" height="5"/>
  <rect class="cls-5" x="40" y="25" width="5" height="5"/>
  <rect class="cls-5" x="45" y="25" width="5" height="5"/>
  <rect class="cls-5" x="50" y="25" width="5" height="5"/>
  <rect class="cls-2" x="55" y="25" width="5" height="5"/>
  <rect class="cls-2" x="60" y="25" width="5" height="5"/>
  <rect class="cls-2" x="65" y="25" width="5" height="5"/>
  <rect class="cls-1" x="70" y="25" width="5" height="5"/>
  <rect class="cls-1" x="75" y="25" width="5" height="5"/>
  <rect class="cls-5" x="80" y="25" width="5" height="5"/>
  <rect class="cls-5" x="5" y="30" width="5" height="5"/>
  <rect class="cls-2" x="10" y="30" width="5" height="5"/>
  <rect class="cls-2" x="15" y="30" width="5" height="5"/>
  <rect class="cls-2" x="20" y="30" width="5" height="5"/>
  <rect class="cls-2" x="25" y="30" width="5" height="5"/>
  <rect class="cls-5" x="30" y="30" width="5" height="5"/>
  <rect class="cls-5" x="55" y="30" width="5" height="5"/>
  <rect class="cls-2" x="60" y="30" width="5" height="5"/>
  <rect class="cls-2" x="65" y="30" width="5" height="5"/>
  <rect class="cls-2" x="70" y="30" width="5" height="5"/>
  <rect class="cls-2" x="75" y="30" width="5" height="5"/>
  <rect class="cls-5" x="80" y="30" width="5" height="5"/>
  <polyline class="cls-5" points="10 40 10 35 15 35 15 40"/>
  <polyline class="cls-5" points="15 40 15 35 20 35 20 40"/>
  <polyline class="cls-5" points="20 40 20 35 25 35 25 40"/>
  <polyline class="cls-5" points="25 40 25 35 30 35 30 40"/>
  <polyline class="cls-5" points="60 40 60 35 65 35 65 40"/>
  <polyline class="cls-5" points="65 40 65 35 70 35 70 40"/>
  <polyline class="cls-5" points="70 40 70 35 75 35 75 40"/>
  <polyline class="cls-5" points="75 40 75 35 80 35 80 40"/>
</svg>