<?xml version="1.0" encoding="UTF-8"?>
<svg id="Layer_1" data-name="Layer 1" xmlns="http://www.w3.org/2000/svg" viewBox="0 0 150 60">
  <defs>
    <style>
      .cls-1 {
        fill: #353535;
      }

      .cls-2 {
        fill: #606060;
      }
    </style>
  </defs>
  <g>
    <path d="m29.9.1v9.8h-9.8V.1h9.8m.1-.1h-10v10h10V0h0Z"/>
    <path d="m39.9.1v9.8h-9.8V.1h9.8m.1-.1h-10v10h10V0h0Z"/>
    <path d="m49.9.1v9.8h-9.8V.1h9.8m.1-.1h-10v10h10V0h0Z"/>
    <path d="m59.9.1v9.8h-9.8V.1h9.8m.1-.1h-10v10h10V0h0Z"/>
    <path d="m69.9.1v9.8h-9.8V.1h9.8m.1-.1h-10v10h10V0h0Z"/>
    <path d="m79.9.1v9.8h-9.8V.1h9.8m.1-.1h-10v10h10V0h0Z"/>
    <path d="m89.9.1v9.8h-9.8V.1h9.8m.1-.1h-10v10h10V0h0Z"/>
    <path d="m19.9,10.1v9.8h-9.8v-9.8h9.8m.1-.1h-10v10h10v-10h0Z"/>
    <path d="m29.9,10.1v9.8h-9.8v-9.8h9.8m.1-.1h-10v10h10v-10h0Z"/>
    <path d="m39.9,10.1v9.8h-9.8v-9.8h9.8m.1-.1h-10v10h10v-10h0Z"/>
    <path d="m49.9,10.1v9.8h-9.8v-9.8h9.8m.1-.1h-10v10h10v-10h0Z"/>
    <path d="m59.9,10.1v9.8h-9.8v-9.8h9.8m.1-.1h-10v10h10v-10h0Z"/>
    <path d="m69.9,10.1v9.8h-9.8v-9.8h9.8m.1-.1h-10v10h10v-10h0Z"/>
    <path d="m79.9,10.1v9.8h-9.8v-9.8h9.8m.1-.1h-10v10h10v-10h0Z"/>
    <path d="m89.9,10.1v9.8h-9.8v-9.8h9.8m.1-.1h-10v10h10v-10h0Z"/>
    <path d="m99.9,10.1v9.8h-9.8v-9.8h9.8m.1-.1h-10v10h10v-10h0Z"/>
    <path d="m9.9,20.1v9.8H.1v-9.8h9.8m.1-.1H0v10h10v-10h0Z"/>
    <path d="m19.9,20.1v9.8h-9.8v-9.8h9.8m.1-.1h-10v10h10v-10h0Z"/>
    <path d="m29.9,20.1v9.8h-9.8v-9.8h9.8m.1-.1h-10v10h10v-10h0Z"/>
    <path d="m39.9,20.1v9.8h-9.8v-9.8h9.8m.1-.1h-10v10h10v-10h0Z"/>
    <path d="m49.9,20.1v9.8h-9.8v-9.8h9.8m.1-.1h-10v10h10v-10h0Z"/>
    <path d="m59.9,20.1v9.8h-9.8v-9.8h9.8m.1-.1h-10v10h10v-10h0Z"/>
    <path d="m69.9,20.1v9.8h-9.8v-9.8h9.8m.1-.1h-10v10h10v-10h0Z"/>
    <path d="m79.9,20.1v9.8h-9.8v-9.8h9.8m.1-.1h-10v10h10v-10h0Z"/>
    <path d="m89.9,20.1v9.8h-9.8v-9.8h9.8m.1-.1h-10v10h10v-10h0Z"/>
    <path d="m99.9,20.1v9.8h-9.8v-9.8h9.8m.1-.1h-10v10h10v-10h0Z"/>
    <path d="m109.9,20.1v9.8h-9.8v-9.8h9.8m.1-.1h-10v10h10v-10h0Z"/>
    <path d="m9.9,30.1v9.8H.1v-9.8h9.8m.1-.1H0v10h10v-10h0Z"/>
    <path d="m19.9,30.1v9.8h-9.8v-9.8h9.8m.1-.1h-10v10h10v-10h0Z"/>
    <path d="m29.9,30.1v9.8h-9.8v-9.8h9.8m.1-.1h-10v10h10v-10h0Z"/>
    <path d="m39.9,30.1v9.8h-9.8v-9.8h9.8m.1-.1h-10v10h10v-10h0Z"/>
    <path d="m49.9,30.1v9.8h-9.8v-9.8h9.8m.1-.1h-10v10h10v-10h0Z"/>
    <path d="m59.9,30.1v9.8h-9.8v-9.8h9.8m.1-.1h-10v10h10v-10h0Z"/>
    <path d="m69.9,30.1v9.8h-9.8v-9.8h9.8m.1-.1h-10v10h10v-10h0Z"/>
    <path d="m79.9,30.1v9.8h-9.8v-9.8h9.8m.1-.1h-10v10h10v-10h0Z"/>
    <path d="m89.9,30.1v9.8h-9.8v-9.8h9.8m.1-.1h-10v10h10v-10h0Z"/>
    <path d="m99.9,30.1v9.8h-9.8v-9.8h9.8m.1-.1h-10v10h10v-10h0Z"/>
    <path d="m109.9,30.1v9.8h-9.8v-9.8h9.8m.1-.1h-10v10h10v-10h0Z"/>
    <path d="m119.9,30.1v9.8h-9.8v-9.8h9.8m.1-.1h-10v10h10v-10h0Z"/>
    <path d="m129.9,30.1v9.8h-9.8v-9.8h9.8m.1-.1h-10v10h10v-10h0Z"/>
    <path d="m139.9,30.1v9.8h-9.8v-9.8h9.8m.1-.1h-10v10h10v-10h0Z"/>
    <path d="m9.9,40.1v9.8H.1v-9.8h9.8m.1-.1H0v10h10v-10h0Z"/>
    <path d="m19.9,40.1v9.8h-9.8v-9.8h9.8m.1-.1h-10v10h10v-10h0Z"/>
    <path d="m29.9,40.1v9.8h-9.8v-9.8h9.8m.1-.1h-10v10h10v-10h0Z"/>
    <path d="m39.9,40.1v9.8h-9.8v-9.8h9.8m.1-.1h-10v10h10v-10h0Z"/>
    <path d="m49.9,40.1v9.8h-9.8v-9.8h9.8m.1-.1h-10v10h10v-10h0Z"/>
    <path d="m59.9,40.1v9.8h-9.8v-9.8h9.8m.1-.1h-10v10h10v-10h0Z"/>
    <path d="m69.9,40.1v9.8h-9.8v-9.8h9.8m.1-.1h-10v10h10v-10h0Z"/>
    <path d="m79.9,40.1v9.8h-9.8v-9.8h9.8m.1-.1h-10v10h10v-10h0Z"/>
    <path d="m89.9,40.1v9.8h-9.8v-9.8h9.8m.1-.1h-10v10h10v-10h0Z"/>
    <path d="m99.9,40.1v9.8h-9.8v-9.8h9.8m.1-.1h-10v10h10v-10h0Z"/>
    <path d="m109.9,40.1v9.8h-9.8v-9.8h9.8m.1-.1h-10v10h10v-10h0Z"/>
    <path d="m119.9,40.1v9.8h-9.8v-9.8h9.8m.1-.1h-10v10h10v-10h0Z"/>
    <path d="m129.9,40.1v9.8h-9.8v-9.8h9.8m.1-.1h-10v10h10v-10h0Z"/>
    <path d="m139.9,40.1v9.8h-9.8v-9.8h9.8m.1-.1h-10v10h10v-10h0Z"/>
    <path d="m149.9,40.1v9.8h-9.8v-9.8h9.8m.1-.1h-10v10h10v-10h0Z"/>
    <path d="m9.9,50.1v9.8H.1v-9.8h9.8m.1-.1H0v10h10v-10h0Z"/>
    <path d="m19.9,50.1v9.8h-9.8v-9.8h9.8m.1-.1h-10v10h10v-10h0Z"/>
    <path d="m29.9,50.1v9.8h-9.8v-9.8h9.8m.1-.1h-10v10h10v-10h0Z"/>
    <path d="m39.9,50.1v9.8h-9.8v-9.8h9.8m.1-.1h-10v10h10v-10h0Z"/>
    <path d="m49.9,50.1v9.8h-9.8v-9.8h9.8m.1-.1h-10v10h10v-10h0Z"/>
    <path d="m59.9,50.1v9.8h-9.8v-9.8h9.8m.1-.1h-10v10h10v-10h0Z"/>
    <path d="m69.9,50.1v9.8h-9.8v-9.8h9.8m.1-.1h-10v10h10v-10h0Z"/>
    <path d="m79.9,50.1v9.8h-9.8v-9.8h9.8m.1-.1h-10v10h10v-10h0Z"/>
    <path d="m89.9,50.1v9.8h-9.8v-9.8h9.8m.1-.1h-10v10h10v-10h0Z"/>
    <path d="m99.9,50.1v9.8h-9.8v-9.8h9.8m.1-.1h-10v10h10v-10h0Z"/>
    <path d="m109.9,50.1v9.8h-9.8v-9.8h9.8m.1-.1h-10v10h10v-10h0Z"/>
    <path d="m119.9,50.1v9.8h-9.8v-9.8h9.8m.1-.1h-10v10h10v-10h0Z"/>
    <path d="m129.9,50.1v9.8h-9.8v-9.8h9.8m.1-.1h-10v10h10v-10h0Z"/>
    <path d="m139.9,50.1v9.8h-9.8v-9.8h9.8m.1-.1h-10v10h10v-10h0Z"/>
    <path d="m149.9,50.1v9.8h-9.8v-9.8h9.8m.1-.1h-10v10h10v-10h0Z"/>
  </g>
  <rect x="20" width="10" height="10"/>
  <rect x="30" width="10" height="10"/>
  <rect x="40" width="10" height="10"/>
  <rect x="50" width="10" height="10"/>
  <rect x="60" width="10" height="10"/>
  <rect x="70" width="10" height="10"/>
  <rect x="80" width="10" height="10"/>
  <rect x="10" y="10" width="10" height="10"/>
  <rect class="cls-1" x="20" y="10" width="10" height="10"/>
  <rect class="cls-2" x="30" y="10" width="10" height="10"/>
  <rect class="cls-2" x="40" y="10" width="10" height="10"/>
  <rect class="cls-2" x="50" y="10" width="10" height="10"/>
  <rect class="cls-2" x="60" y="10" width="10" height="10"/>
  <rect class="cls-2" x="70" y="10" width="10" height="10"/>
  <rect class="cls-2" x="80" y="10" width="10" height="10"/>
  <rect x="90" y="10" width="10" height="10"/>
  <rect x="0" y="20" width="10" height="10"/>
  <rect class="cls-1" x="10" y="20" width="10" height="10"/>
  <rect class="cls-2" x="20" y="20" width="10" height="10"/>
  <rect class="cls-2" x="30" y="20" width="10" height="10"/>
  <rect class="cls-2" x="40" y="20" width="10" height="10"/>
  <rect class="cls-2" x="50" y="20" width="10" height="10"/>
  <rect class="cls-2" x="60" y="20" width="10" height="10"/>
  <rect class="cls-2" x="70" y="20" width="10" height="10"/>
  <rect class="cls-2" x="80" y="20" width="10" height="10"/>
  <rect class="cls-2" x="90" y="20" width="10" height="10"/>
  <rect x="100" y="20" width="10" height="10"/>
  <rect x="0" y="30" width="10" height="10"/>
  <rect class="cls-1" x="10" y="30" width="10" height="10"/>
  <rect class="cls-2" x="20" y="30" width="10" height="10"/>
  <rect class="cls-2" x="30" y="30" width="10" height="10"/>
  <rect x="40" y="30" width="10" height="10"/>
  <rect x="50" y="30" width="10" height="10"/>
  <rect x="60" y="30" width="10" height="10"/>
  <rect x="70" y="30" width="10" height="10"/>
  <rect x="80" y="30" width="10" height="10"/>
  <rect x="90" y="30" width="10" height="10"/>
  <rect x="100" y="30" width="10" height="10"/>
  <rect x="110" y="30" width="10" height="10"/>
  <rect x="120" y="30" width="10" height="10"/>
  <rect x="130" y="30" width="10" height="10"/>
  <rect x="0" y="40" width="10" height="10"/>
  <rect class="cls-2" x="10" y="40" width="10" height="10"/>
  <rect class="cls-2" x="20" y="40" width="10" height="10"/>
  <rect x="30" y="40" width="10" height="10"/>
  <rect class="cls-1" x="40" y="40" width="10" height="10"/>
  <rect class="cls-1" x="50" y="40" width="10" height="10"/>
  <rect class="cls-1" x="60" y="40" width="10" height="10"/>
  <rect class="cls-1" x="70" y="40" width="10" height="10"/>
  <rect class="cls-1" x="80" y="40" width="10" height="10"/>
  <rect class="cls-1" x="90" y="40" width="10" height="10"/>
  <rect class="cls-1" x="100" y="40" width="10" height="10"/>
  <rect class="cls-1" x="110" y="40" width="10" height="10"/>
  <rect class="cls-1" x="120" y="40" width="10" height="10"/>
  <rect class="cls-1" x="130" y="40" width="10" height="10"/>
  <rect x="140" y="40" width="10" height="10"/>
  <polyline points="0 60 0 50 10 50 10 60"/>
  <polyline points="10 60 10 50 20 50 20 60"/>
  <polyline points="20 60 20 50 30 50 30 60"/>
  <polyline points="30 60 30 50 40 50 40 60"/>
  <polyline points="40 60 40 50 50 50 50 60"/>
  <polyline points="50 60 50 50 60 50 60 60"/>
  <polyline points="60 60 60 50 70 50 70 60"/>
  <polyline points="70 60 70 50 80 50 80 60"/>
  <polyline points="80 60 80 50 90 50 90 60"/>
  <polyline points="90 60 90 50 100 50 100 60"/>
  <polyline points="100 60 100 50 110 50 110 60"/>
  <polyline points="110 60 110 50 120 50 120 60"/>
  <polyline points="120 60 120 50 130 50 130 60"/>
  <polyline points="130 60 130 50 140 50 140 60"/>
  <polyline points="140 60 140 50 150 50 150 60"/>
</svg>