<?xml version="1.0" encoding="UTF-8"?>
<svg id="Layer_1" data-name="Layer 1" xmlns="http://www.w3.org/2000/svg" viewBox="0 0 160.1 80.1">
  <defs>
    <style>
      .cls-1 {
        fill: none;
        stroke: #000;
        stroke-miterlimit: 10;
        stroke-width: .1px;
      }

      .cls-2 {
        fill: #945012;
      }

      .cls-3 {
        fill: #743000;
      }
    </style>
  </defs>
  <g>
    <rect class="cls-1" x="70.05" y=".05" width="10" height="10"/>
    <rect class="cls-1" x="80.05" y=".05" width="10" height="10"/>
    <rect class="cls-1" x="30.05" y="10.05" width="10" height="10"/>
    <rect class="cls-1" x="40.05" y="10.05" width="10" height="10"/>
    <rect class="cls-1" x="50.05" y="10.05" width="10" height="10"/>
    <rect class="cls-1" x="60.05" y="10.05" width="10" height="10"/>
    <rect class="cls-1" x="70.05" y="10.05" width="10" height="10"/>
    <rect class="cls-1" x="80.05" y="10.05" width="10" height="10"/>
    <rect class="cls-1" x="90.05" y="10.05" width="10" height="10"/>
    <rect class="cls-1" x="100.05" y="10.05" width="10" height="10"/>
    <rect class="cls-1" x="110.05" y="10.05" width="10" height="10"/>
    <rect class="cls-1" x="120.05" y="10.05" width="10" height="10"/>
    <rect class="cls-1" x="10.05" y="20.05" width="10" height="10"/>
    <rect class="cls-1" x="20.05" y="20.05" width="10" height="10"/>
    <rect class="cls-1" x="30.05" y="20.05" width="10" height="10"/>
    <rect class="cls-1" x="40.05" y="20.05" width="10" height="10"/>
    <rect class="cls-1" x="50.05" y="20.05" width="10" height="10"/>
    <rect class="cls-1" x="60.05" y="20.05" width="10" height="10"/>
    <rect class="cls-1" x="70.05" y="20.05" width="10" height="10"/>
    <rect class="cls-1" x="80.05" y="20.05" width="10" height="10"/>
    <rect class="cls-1" x="90.05" y="20.05" width="10" height="10"/>
    <rect class="cls-1" x="100.05" y="20.05" width="10" height="10"/>
    <rect class="cls-1" x="110.05" y="20.05" width="10" height="10"/>
    <rect class="cls-1" x="120.05" y="20.05" width="10" height="10"/>
    <rect class="cls-1" x="130.05" y="20.05" width="10" height="10"/>
    <rect class="cls-1" x="140.05" y="20.05" width="10" height="10"/>
    <rect class="cls-1" x=".05" y="30.05" width="10" height="10"/>
    <rect class="cls-1" x="10.05" y="30.05" width="10" height="10"/>
    <rect class="cls-1" x="20.05" y="30.05" width="10" height="10"/>
    <rect class="cls-1" x="30.05" y="30.05" width="10" height="10"/>
    <rect class="cls-1" x="40.05" y="30.05" width="10" height="10"/>
    <rect class="cls-1" x="50.05" y="30.05" width="10" height="10"/>
    <rect class="cls-1" x="60.05" y="30.05" width="10" height="10"/>
    <rect class="cls-1" x="70.05" y="30.05" width="10" height="10"/>
    <rect class="cls-1" x="80.05" y="30.05" width="10" height="10"/>
    <rect class="cls-1" x="90.05" y="30.05" width="10" height="10"/>
    <rect class="cls-1" x="100.05" y="30.05" width="10" height="10"/>
    <rect class="cls-1" x="110.05" y="30.05" width="10" height="10"/>
    <rect class="cls-1" x="120.05" y="30.05" width="10" height="10"/>
    <rect class="cls-1" x="130.05" y="30.05" width="10" height="10"/>
    <rect class="cls-1" x="140.05" y="30.05" width="10" height="10"/>
    <rect class="cls-1" x="150.05" y="30.05" width="10" height="10"/>
    <rect class="cls-1" x=".05" y="40.05" width="10" height="10"/>
    <rect class="cls-1" x="10.05" y="40.05" width="10" height="10"/>
    <rect class="cls-1" x="20.05" y="40.05" width="10" height="10"/>
    <rect class="cls-1" x="30.05" y="40.05" width="10" height="10"/>
    <rect class="cls-1" x="40.05" y="40.05" width="10" height="10"/>
    <rect class="cls-1" x="50.05" y="40.05" width="10" height="10"/>
    <rect class="cls-1" x="60.05" y="40.05" width="10" height="10"/>
    <rect class="cls-1" x="70.05" y="40.05" width="10" height="10"/>
    <rect class="cls-1" x="80.05" y="40.05" width="10" height="10"/>
    <rect class="cls-1" x="90.05" y="40.05" width="10" height="10"/>
    <rect class="cls-1" x="100.05" y="40.05" width="10" height="10"/>
    <rect class="cls-1" x="110.05" y="40.05" width="10" height="10"/>
    <rect class="cls-1" x="120.05" y="40.05" width="10" height="10"/>
    <rect class="cls-1" x="130.05" y="40.05" width="10" height="10"/>
    <rect class="cls-1" x="140.05" y="40.05" width="10" height="10"/>
    <rect class="cls-1" x="150.05" y="40.05" width="10" height="10"/>
    <rect class="cls-1" x=".05" y="50.05" width="10" height="10"/>
    <rect class="cls-1" x="10.05" y="50.05" width="10" height="10"/>
    <rect class="cls-1" x="20.05" y="50.05" width="10" height="10"/>
    <rect class="cls-1" x="30.05" y="50.05" width="10" height="10"/>
    <rect class="cls-1" x="40.05" y="50.05" width="10" height="10"/>
    <rect class="cls-1" x="50.05" y="50.05" width="10" height="10"/>
    <rect class="cls-1" x="60.05" y="50.05" width="10" height="10"/>
    <rect class="cls-1" x="70.05" y="50.05" width="10" height="10"/>
    <rect class="cls-1" x="80.05" y="50.05" width="10" height="10"/>
    <rect class="cls-1" x="90.05" y="50.05" width="10" height="10"/>
    <rect class="cls-1" x="100.05" y="50.05" width="10" height="10"/>
    <rect class="cls-1" x="110.05" y="50.05" width="10" height="10"/>
    <rect class="cls-1" x="120.05" y="50.05" width="10" height="10"/>
    <rect class="cls-1" x="130.05" y="50.05" width="10" height="10"/>
    <rect class="cls-1" x="140.05" y="50.05" width="10" height="10"/>
    <rect class="cls-1" x="150.05" y="50.05" width="10" height="10"/>
    <rect class="cls-1" x="10.05" y="60.05" width="10" height="10"/>
    <rect class="cls-1" x="20.05" y="60.05" width="10" height="10"/>
    <rect class="cls-1" x="30.05" y="60.05" width="10" height="10"/>
    <rect class="cls-1" x="40.05" y="60.05" width="10" height="10"/>
    <rect class="cls-1" x="50.05" y="60.05" width="10" height="10"/>
    <rect class="cls-1" x="60.05" y="60.05" width="10" height="10"/>
    <rect class="cls-1" x="70.05" y="60.05" width="10" height="10"/>
    <rect class="cls-1" x="80.05" y="60.05" width="10" height="10"/>
    <rect class="cls-1" x="90.05" y="60.05" width="10" height="10"/>
    <rect class="cls-1" x="100.05" y="60.05" width="10" height="10"/>
    <rect class="cls-1" x="110.05" y="60.05" width="10" height="10"/>
    <rect class="cls-1" x="120.05" y="60.05" width="10" height="10"/>
    <rect class="cls-1" x="130.05" y="60.05" width="10" height="10"/>
    <rect class="cls-1" x="140.05" y="60.05" width="10" height="10"/>
    <rect class="cls-1" x="20.05" y="70.05" width="10" height="10"/>
    <rect class="cls-1" x="30.05" y="70.05" width="10" height="10"/>
    <rect class="cls-1" x="40.05" y="70.05" width="10" height="10"/>
    <rect class="cls-1" x="50.05" y="70.05" width="10" height="10"/>
    <rect class="cls-1" x="60.05" y="70.05" width="10" height="10"/>
    <rect class="cls-1" x="70.05" y="70.05" width="10" height="10"/>
    <rect class="cls-1" x="80.05" y="70.05" width="10" height="10"/>
    <rect class="cls-1" x="90.05" y="70.05" width="10" height="10"/>
    <rect class="cls-1" x="100.05" y="70.05" width="10" height="10"/>
    <rect class="cls-1" x="110.05" y="70.05" width="10" height="10"/>
    <rect class="cls-1" x="120.05" y="70.05" width="10" height="10"/>
    <rect class="cls-1" x="130.05" y="70.05" width="10" height="10"/>
  </g>
  <rect class="cls-3" x="70.05" y=".05" width="10" height="10"/>
  <rect x="80.05" y=".05" width="10" height="10"/>
  <rect x="30.05" y="10.05" width="10" height="10"/>
  <rect x="40.05" y="10.05" width="10" height="10"/>
  <rect x="50.05" y="10.05" width="10" height="10"/>
  <rect x="60.05" y="10.05" width="10" height="10"/>
  <rect x="70.05" y="10.05" width="10" height="10"/>
  <rect x="80.05" y="10.05" width="10" height="10"/>
  <rect x="90.05" y="10.05" width="10" height="10"/>
  <rect x="100.05" y="10.05" width="10" height="10"/>
  <rect x="110.05" y="10.05" width="10" height="10"/>
  <rect x="120.05" y="10.05" width="10" height="10"/>
  <rect x="10.05" y="20.05" width="10" height="10"/>
  <rect x="20.05" y="20.05" width="10" height="10"/>
  <rect class="cls-2" x="30.05" y="20.05" width="10" height="10"/>
  <rect class="cls-3" x="40.05" y="20.05" width="10" height="10"/>
  <rect class="cls-3" x="50.05" y="20.05" width="10" height="10"/>
  <rect class="cls-3" x="60.05" y="20.05" width="10" height="10"/>
  <rect class="cls-3" x="70.05" y="20.05" width="10" height="10"/>
  <rect class="cls-3" x="80.05" y="20.05" width="10" height="10"/>
  <rect class="cls-2" x="90.05" y="20.05" width="10" height="10"/>
  <rect class="cls-3" x="100.05" y="20.05" width="10" height="10"/>
  <rect class="cls-3" x="110.05" y="20.05" width="10" height="10"/>
  <rect class="cls-3" x="120.05" y="20.05" width="10" height="10"/>
  <rect x="130.05" y="20.05" width="10" height="10"/>
  <rect x="140.05" y="20.05" width="10" height="10"/>
  <rect x=".05" y="30.05" width="10" height="10"/>
  <rect x="10.05" y="30.05" width="10" height="10"/>
  <rect class="cls-3" x="20.05" y="30.05" width="10" height="10"/>
  <rect class="cls-3" x="30.05" y="30.05" width="10" height="10"/>
  <rect class="cls-3" x="40.05" y="30.05" width="10" height="10"/>
  <rect class="cls-3" x="50.05" y="30.05" width="10" height="10"/>
  <rect class="cls-2" x="60.05" y="30.05" width="10" height="10"/>
  <rect class="cls-3" x="70.05" y="30.05" width="10" height="10"/>
  <rect class="cls-3" x="80.05" y="30.05" width="10" height="10"/>
  <rect class="cls-3" x="90.05" y="30.05" width="10" height="10"/>
  <rect class="cls-3" x="100.05" y="30.05" width="10" height="10"/>
  <rect class="cls-2" x="110.05" y="30.05" width="10" height="10"/>
  <rect class="cls-3" x="120.05" y="30.05" width="10" height="10"/>
  <rect class="cls-3" x="130.05" y="30.05" width="10" height="10"/>
  <rect x="140.05" y="30.05" width="10" height="10"/>
  <rect x="150.05" y="30.05" width="10" height="10"/>
  <rect x=".05" y="40.05" width="10" height="10"/>
  <rect class="cls-2" x="10.05" y="40.05" width="10" height="10"/>
  <rect class="cls-2" x="20.05" y="40.05" width="10" height="10"/>
  <rect class="cls-2" x="30.05" y="40.05" width="10" height="10"/>
  <rect class="cls-3" x="40.05" y="40.05" width="10" height="10"/>
  <rect class="cls-3" x="50.05" y="40.05" width="10" height="10"/>
  <rect class="cls-3" x="60.05" y="40.05" width="10" height="10"/>
  <rect class="cls-3" x="70.05" y="40.05" width="10" height="10"/>
  <rect class="cls-2" x="80.05" y="40.05" width="10" height="10"/>
  <rect class="cls-3" x="90.05" y="40.05" width="10" height="10"/>
  <rect class="cls-3" x="100.05" y="40.05" width="10" height="10"/>
  <rect class="cls-3" x="110.05" y="40.05" width="10" height="10"/>
  <rect class="cls-3" x="120.05" y="40.05" width="10" height="10"/>
  <rect class="cls-2" x="130.05" y="40.05" width="10" height="10"/>
  <rect class="cls-3" x="140.05" y="40.05" width="10" height="10"/>
  <rect x="150.05" y="40.05" width="10" height="10"/>
  <rect x=".05" y="50.05" width="10" height="10"/>
  <rect x="10.05" y="50.05" width="10" height="10"/>
  <rect class="cls-2" x="20.05" y="50.05" width="10" height="10"/>
  <rect class="cls-2" x="30.05" y="50.05" width="10" height="10"/>
  <rect class="cls-2" x="40.05" y="50.05" width="10" height="10"/>
  <rect class="cls-2" x="50.05" y="50.05" width="10" height="10"/>
  <rect class="cls-2" x="60.05" y="50.05" width="10" height="10"/>
  <rect class="cls-2" x="70.05" y="50.05" width="10" height="10"/>
  <rect class="cls-2" x="80.05" y="50.05" width="10" height="10"/>
  <rect class="cls-2" x="90.05" y="50.05" width="10" height="10"/>
  <rect class="cls-2" x="100.05" y="50.05" width="10" height="10"/>
  <rect class="cls-3" x="110.05" y="50.05" width="10" height="10"/>
  <rect class="cls-3" x="120.05" y="50.05" width="10" height="10"/>
  <rect class="cls-3" x="130.05" y="50.05" width="10" height="10"/>
  <rect x="140.05" y="50.05" width="10" height="10"/>
  <rect x="150.05" y="50.05" width="10" height="10"/>
  <rect x="10.05" y="60.05" width="10" height="10"/>
  <rect x="20.05" y="60.05" width="10" height="10"/>
  <rect class="cls-2" x="30.05" y="60.05" width="10" height="10"/>
  <rect class="cls-2" x="40.05" y="60.05" width="10" height="10"/>
  <rect class="cls-2" x="50.05" y="60.05" width="10" height="10"/>
  <rect class="cls-2" x="60.05" y="60.05" width="10" height="10"/>
  <rect class="cls-2" x="70.05" y="60.05" width="10" height="10"/>
  <rect class="cls-2" x="80.05" y="60.05" width="10" height="10"/>
  <rect class="cls-2" x="90.05" y="60.05" width="10" height="10"/>
  <rect class="cls-2" x="100.05" y="60.05" width="10" height="10"/>
  <rect class="cls-2" x="110.05" y="60.05" width="10" height="10"/>
  <rect class="cls-2" x="120.05" y="60.05" width="10" height="10"/>
  <rect x="130.05" y="60.05" width="10" height="10"/>
  <rect x="140.05" y="60.05" width="10" height="10"/>
  <polyline points="20.05 80.05 20.05 70.05 30.05 70.05 30.05 80.05"/>
  <polyline points="30.05 80.05 30.05 70.05 40.05 70.05 40.05 80.05"/>
  <polyline points="40.05 80.05 40.05 70.05 50.05 70.05 50.05 80.05"/>
  <polyline points="50.05 80.05 50.05 70.05 60.05 70.05 60.05 80.05"/>
  <polyline points="60.05 80.05 60.05 70.05 70.05 70.05 70.05 80.05"/>
  <polyline points="70.05 80.05 70.05 70.05 80.05 70.05 80.05 80.05"/>
  <polyline points="80.05 80.05 80.05 70.05 90.05 70.05 90.05 80.05"/>
  <polyline points="90.05 80.05 90.05 70.05 100.05 70.05 100.05 80.05"/>
  <polyline points="100.05 80.05 100.05 70.05 110.05 70.05 110.05 80.05"/>
  <polyline points="110.05 80.05 110.05 70.05 120.05 70.05 120.05 80.05"/>
  <polyline points="120.05 80.05 120.05 70.05 130.05 70.05 130.05 80.05"/>
  <polyline points="130.05 80.05 130.05 70.05 140.05 70.05 140.05 80.05"/>
</svg>