<?xml version="1.0" encoding="UTF-8"?>
<svg id="s" xmlns="http://www.w3.org/2000/svg" viewBox="0 0 200 100">
  <defs>
    <style>
      .cls-1 {
        fill: #797979;
      }

      .cls-2 {
        fill: #ffba00;
      }

      .cls-3 {
        fill: #2b2930;
      }

      .cls-4 {
        fill: #ff0;
      }

      .cls-5 {
        fill: #483d41;
      }
    </style>
  </defs>
  <rect class="cls-3" x="50" width="10" height="10"/>
  <rect class="cls-3" x="60" width="10" height="10"/>
  <rect class="cls-3" x="70" width="10" height="10"/>
  <rect class="cls-3" x="80" width="10" height="10"/>
  <rect class="cls-3" x="90" width="10" height="10"/>
  <rect class="cls-3" x="100" width="10" height="10"/>
  <rect class="cls-3" x="160" width="10" height="10"/>
  <rect class="cls-3" x="170" width="10" height="10"/>
  <rect class="cls-3" x="180" width="10" height="10"/>
  <rect class="cls-3" y="10" width="10" height="10"/>
  <rect class="cls-3" x="10" y="10" width="10" height="10"/>
  <rect class="cls-3" x="20" y="10" width="10" height="10"/>
  <rect class="cls-3" x="40" y="10" width="10" height="10"/>
  <rect class="cls-1" x="50" y="10" width="10" height="10"/>
  <rect class="cls-1" x="60" y="10" width="10" height="10"/>
  <rect class="cls-1" x="70" y="10" width="10" height="10"/>
  <rect class="cls-1" x="80" y="10" width="10" height="10"/>
  <rect class="cls-1" x="90" y="10" width="10" height="10"/>
  <rect class="cls-1" x="100" y="10" width="10" height="10"/>
  <rect class="cls-3" x="110" y="10" width="10" height="10"/>
  <rect class="cls-3" x="120" y="10" width="10" height="10"/>
  <rect class="cls-3" x="150" y="10" width="10" height="10"/>
  <rect class="cls-1" x="160" y="10" width="10" height="10"/>
  <rect class="cls-1" x="170" y="10" width="10" height="10"/>
  <rect class="cls-1" x="180" y="10" width="10" height="10"/>
  <rect class="cls-3" x="190" y="10" width="10" height="10"/>
  <rect class="cls-3" y="20" width="10" height="10"/>
  <rect class="cls-4" x="10" y="20" width="10" height="10"/>
  <rect class="cls-4" x="20" y="20" width="10" height="10"/>
  <rect class="cls-3" x="30" y="20" width="10" height="10"/>
  <rect class="cls-1" x="40" y="20" width="10" height="10"/>
  <rect class="cls-3" x="50" y="20" width="10" height="10"/>
  <rect class="cls-3" x="60" y="20" width="10" height="10"/>
  <rect class="cls-1" x="70" y="20" width="10" height="10"/>
  <rect class="cls-1" x="80" y="20" width="10" height="10"/>
  <rect class="cls-1" x="90" y="20" width="10" height="10"/>
  <rect class="cls-1" x="100" y="20" width="10" height="10"/>
  <rect class="cls-1" x="110" y="20" width="10" height="10"/>
  <rect class="cls-1" x="120" y="20" width="10" height="10"/>
  <rect class="cls-3" x="130" y="20" width="10" height="10"/>
  <rect class="cls-3" x="160" y="20" width="10" height="10"/>
  <rect class="cls-1" x="170" y="20" width="10" height="10"/>
  <rect class="cls-1" x="180" y="20" width="10" height="10"/>
  <rect class="cls-3" x="190" y="20" width="10" height="10"/>
  <rect class="cls-3" y="30" width="10" height="10"/>
  <rect class="cls-2" x="10" y="30" width="10" height="10"/>
  <rect class="cls-4" x="20" y="30" width="10" height="10"/>
  <rect class="cls-4" x="30" y="30" width="10" height="10"/>
  <rect class="cls-3" x="40" y="30" width="10" height="10"/>
  <rect class="cls-4" x="50" y="30" width="10" height="10"/>
  <rect class="cls-3" x="60" y="30" width="10" height="10"/>
  <rect class="cls-1" x="70" y="30" width="10" height="10"/>
  <rect class="cls-1" x="80" y="30" width="10" height="10"/>
  <rect class="cls-1" x="90" y="30" width="10" height="10"/>
  <rect class="cls-1" x="100" y="30" width="10" height="10"/>
  <rect class="cls-1" x="110" y="30" width="10" height="10"/>
  <rect class="cls-1" x="120" y="30" width="10" height="10"/>
  <rect class="cls-1" x="130" y="30" width="10" height="10"/>
  <rect class="cls-3" x="140" y="30" width="10" height="10"/>
  <rect class="cls-3" x="150" y="30" width="10" height="10"/>
  <rect class="cls-3" x="160" y="30" width="10" height="10"/>
  <rect class="cls-1" x="170" y="30" width="10" height="10"/>
  <rect class="cls-1" x="180" y="30" width="10" height="10"/>
  <rect class="cls-3" x="190" y="30" width="10" height="10"/>
  <rect class="cls-3" x="10" y="40" width="10" height="10"/>
  <rect class="cls-2" x="20" y="40" width="10" height="10"/>
  <rect class="cls-4" x="30" y="40" width="10" height="10"/>
  <rect class="cls-4" x="40" y="40" width="10" height="10"/>
  <rect class="cls-2" x="50" y="40" width="10" height="10"/>
  <rect class="cls-3" x="60" y="40" width="10" height="10"/>
  <rect class="cls-5" x="70" y="40" width="10" height="10"/>
  <rect class="cls-5" x="80" y="40" width="10" height="10"/>
  <rect class="cls-5" x="90" y="40" width="10" height="10"/>
  <rect class="cls-5" x="100" y="40" width="10" height="10"/>
  <rect class="cls-5" x="110" y="40" width="10" height="10"/>
  <rect class="cls-5" x="120" y="40" width="10" height="10"/>
  <rect class="cls-5" x="130" y="40" width="10" height="10"/>
  <rect class="cls-1" x="140" y="40" width="10" height="10"/>
  <rect class="cls-1" x="150" y="40" width="10" height="10"/>
  <rect class="cls-1" x="160" y="40" width="10" height="10"/>
  <rect class="cls-1" x="170" y="40" width="10" height="10"/>
  <rect class="cls-5" x="180" y="40" width="10" height="10"/>
  <rect class="cls-3" x="190" y="40" width="10" height="10"/>
  <rect class="cls-3" y="50" width="10" height="10"/>
  <rect class="cls-2" x="10" y="50" width="10" height="10"/>
  <rect class="cls-2" x="20" y="50" width="10" height="10"/>
  <rect class="cls-2" x="30" y="50" width="10" height="10"/>
  <rect class="cls-4" x="40" y="50" width="10" height="10"/>
  <rect class="cls-3" x="50" y="50" width="10" height="10"/>
  <rect class="cls-1" x="60" y="50" width="10" height="10"/>
  <rect class="cls-5" x="70" y="50" width="10" height="10"/>
  <rect class="cls-1" x="80" y="50" width="10" height="10"/>
  <rect class="cls-1" x="90" y="50" width="10" height="10"/>
  <rect class="cls-1" x="100" y="50" width="10" height="10"/>
  <rect class="cls-1" x="110" y="50" width="10" height="10"/>
  <rect class="cls-1" x="120" y="50" width="10" height="10"/>
  <rect class="cls-1" x="130" y="50" width="10" height="10"/>
  <rect class="cls-1" x="140" y="50" width="10" height="10"/>
  <rect class="cls-1" x="150" y="50" width="10" height="10"/>
  <rect class="cls-1" x="160" y="50" width="10" height="10"/>
  <rect class="cls-5" x="170" y="50" width="10" height="10"/>
  <rect class="cls-3" x="180" y="50" width="10" height="10"/>
  <rect class="cls-3" x="10" y="60" width="10" height="10"/>
  <rect class="cls-2" x="20" y="60" width="10" height="10"/>
  <rect class="cls-2" x="30" y="60" width="10" height="10"/>
  <rect class="cls-3" x="40" y="60" width="10" height="10"/>
  <rect class="cls-3" x="50" y="60" width="10" height="10"/>
  <rect class="cls-5" x="60" y="60" width="10" height="10"/>
  <rect class="cls-5" x="70" y="60" width="10" height="10"/>
  <rect class="cls-5" x="80" y="60" width="10" height="10"/>
  <rect class="cls-5" x="90" y="60" width="10" height="10"/>
  <rect class="cls-5" x="100" y="60" width="10" height="10"/>
  <rect class="cls-5" x="110" y="60" width="10" height="10"/>
  <rect class="cls-5" x="120" y="60" width="10" height="10"/>
  <rect class="cls-5" x="130" y="60" width="10" height="10"/>
  <rect class="cls-5" x="140" y="60" width="10" height="10"/>
  <rect class="cls-5" x="150" y="60" width="10" height="10"/>
  <rect class="cls-5" x="160" y="60" width="10" height="10"/>
  <rect class="cls-5" x="170" y="60" width="10" height="10"/>
  <rect class="cls-3" x="10" y="70" width="10" height="10"/>
  <rect class="cls-3" x="20" y="70" width="10" height="10"/>
  <rect class="cls-3" x="30" y="70" width="10" height="10"/>
  <rect class="cls-1" x="40" y="70" width="10" height="10"/>
  <rect class="cls-5" x="50" y="70" width="10" height="10"/>
  <rect class="cls-3" x="20" y="80" width="10" height="10"/>
  <rect class="cls-1" x="30" y="80" width="10" height="10"/>
  <rect class="cls-5" x="40" y="80" width="10" height="10"/>
  <rect class="cls-3" x="50" y="80" width="10" height="10"/>
  <rect class="cls-3" x="20" y="90" width="10" height="10"/>
  <rect class="cls-3" x="30" y="90" width="10" height="10"/>
  <rect class="cls-3" x="40" y="90" width="10" height="10"/>
</svg>