<?xml version="1.0" encoding="UTF-8"?>
<svg id="Layer_1" data-name="Layer 1" xmlns="http://www.w3.org/2000/svg" viewBox="0 0 200 110">
  <defs>
    <style>
      .cls-1 {
        fill: #261430;
      }

      .cls-2 {
        fill: #524862;
      }

      .cls-3 {
        fill: #3a2547;
      }

      .cls-4 {
        fill: #010202;
      }
    </style>
  </defs>
  <g>
    <path d="m89.9.1v9.8h-9.8V.1h9.8m.1-.1h-10v10h10V0h0Z"/>
    <path d="m99.9.1v9.8h-9.8V.1h9.8m.1-.1h-10v10h10V0h0Z"/>
    <path d="m109.9.1v9.8h-9.8V.1h9.8m.1-.1h-10v10h10V0h0Z"/>
    <path d="m119.9.1v9.8h-9.8V.1h9.8m.1-.1h-10v10h10V0h0Z"/>
    <path d="m129.9.1v9.8h-9.8V.1h9.8m.1-.1h-10v10h10V0h0Z"/>
    <path d="m139.9.1v9.8h-9.8V.1h9.8m.1-.1h-10v10h10V0h0Z"/>
    <path d="m149.9.1v9.8h-9.8V.1h9.8m.1-.1h-10v10h10V0h0Z"/>
    <path d="m159.9.1v9.8h-9.8V.1h9.8m.1-.1h-10v10h10V0h0Z"/>
    <path d="m169.9.1v9.8h-9.8V.1h9.8m.1-.1h-10v10h10V0h0Z"/>
    <path d="m79.9,10.1v9.8h-9.8v-9.8h9.8m.1-.1h-10v10h10v-10h0Z"/>
    <path d="m89.9,10.1v9.8h-9.8v-9.8h9.8m.1-.1h-10v10h10v-10h0Z"/>
    <path d="m99.9,10.1v9.8h-9.8v-9.8h9.8m.1-.1h-10v10h10v-10h0Z"/>
    <path d="m109.9,10.1v9.8h-9.8v-9.8h9.8m.1-.1h-10v10h10v-10h0Z"/>
    <path d="m119.9,10.1v9.8h-9.8v-9.8h9.8m.1-.1h-10v10h10v-10h0Z"/>
    <path d="m129.9,10.1v9.8h-9.8v-9.8h9.8m.1-.1h-10v10h10v-10h0Z"/>
    <path d="m139.9,10.1v9.8h-9.8v-9.8h9.8m.1-.1h-10v10h10v-10h0Z"/>
    <path d="m149.9,10.1v9.8h-9.8v-9.8h9.8m.1-.1h-10v10h10v-10h0Z"/>
    <path d="m159.9,10.1v9.8h-9.8v-9.8h9.8m.1-.1h-10v10h10v-10h0Z"/>
    <path d="m169.9,10.1v9.8h-9.8v-9.8h9.8m.1-.1h-10v10h10v-10h0Z"/>
    <path d="m179.9,10.1v9.8h-9.8v-9.8h9.8m.1-.1h-10v10h10v-10h0Z"/>
    <path d="m69.9,20.1v9.8h-9.8v-9.8h9.8m.1-.1h-10v10h10v-10h0Z"/>
    <path d="m79.9,20.1v9.8h-9.8v-9.8h9.8m.1-.1h-10v10h10v-10h0Z"/>
    <path d="m89.9,20.1v9.8h-9.8v-9.8h9.8m.1-.1h-10v10h10v-10h0Z"/>
    <path d="m99.9,20.1v9.8h-9.8v-9.8h9.8m.1-.1h-10v10h10v-10h0Z"/>
    <path d="m109.9,20.1v9.8h-9.8v-9.8h9.8m.1-.1h-10v10h10v-10h0Z"/>
    <path d="m119.9,20.1v9.8h-9.8v-9.8h9.8m.1-.1h-10v10h10v-10h0Z"/>
    <path d="m129.9,20.1v9.8h-9.8v-9.8h9.8m.1-.1h-10v10h10v-10h0Z"/>
    <path d="m139.9,20.1v9.8h-9.8v-9.8h9.8m.1-.1h-10v10h10v-10h0Z"/>
    <path d="m149.9,20.1v9.8h-9.8v-9.8h9.8m.1-.1h-10v10h10v-10h0Z"/>
    <path d="m159.9,20.1v9.8h-9.8v-9.8h9.8m.1-.1h-10v10h10v-10h0Z"/>
    <path d="m169.9,20.1v9.8h-9.8v-9.8h9.8m.1-.1h-10v10h10v-10h0Z"/>
    <path d="m179.9,20.1v9.8h-9.8v-9.8h9.8m.1-.1h-10v10h10v-10h0Z"/>
    <path d="m189.9,20.1v9.8h-9.8v-9.8h9.8m.1-.1h-10v10h10v-10h0Z"/>
    <path d="m59.9,30.1v9.8h-9.8v-9.8h9.8m.1-.1h-10v10h10v-10h0Z"/>
    <path d="m69.9,30.1v9.8h-9.8v-9.8h9.8m.1-.1h-10v10h10v-10h0Z"/>
    <path d="m79.9,30.1v9.8h-9.8v-9.8h9.8m.1-.1h-10v10h10v-10h0Z"/>
    <path d="m89.9,30.1v9.8h-9.8v-9.8h9.8m.1-.1h-10v10h10v-10h0Z"/>
    <path d="m99.9,30.1v9.8h-9.8v-9.8h9.8m.1-.1h-10v10h10v-10h0Z"/>
    <path d="m109.9,30.1v9.8h-9.8v-9.8h9.8m.1-.1h-10v10h10v-10h0Z"/>
    <path d="m119.9,30.1v9.8h-9.8v-9.8h9.8m.1-.1h-10v10h10v-10h0Z"/>
    <path d="m129.9,30.1v9.8h-9.8v-9.8h9.8m.1-.1h-10v10h10v-10h0Z"/>
    <path d="m139.9,30.1v9.8h-9.8v-9.8h9.8m.1-.1h-10v10h10v-10h0Z"/>
    <path d="m149.9,30.1v9.8h-9.8v-9.8h9.8m.1-.1h-10v10h10v-10h0Z"/>
    <path d="m159.9,30.1v9.8h-9.8v-9.8h9.8m.1-.1h-10v10h10v-10h0Z"/>
    <path d="m169.9,30.1v9.8h-9.8v-9.8h9.8m.1-.1h-10v10h10v-10h0Z"/>
    <path d="m179.9,30.1v9.8h-9.8v-9.8h9.8m.1-.1h-10v10h10v-10h0Z"/>
    <path d="m189.9,30.1v9.8h-9.8v-9.8h9.8m.1-.1h-10v10h10v-10h0Z"/>
    <path d="m199.9,30.1v9.8h-9.8v-9.8h9.8m.1-.1h-10v10h10v-10h0Z"/>
    <path d="m59.9,40.1v9.8h-9.8v-9.8h9.8m.1-.1h-10v10h10v-10h0Z"/>
    <path d="m69.9,40.1v9.8h-9.8v-9.8h9.8m.1-.1h-10v10h10v-10h0Z"/>
    <path d="m79.9,40.1v9.8h-9.8v-9.8h9.8m.1-.1h-10v10h10v-10h0Z"/>
    <path d="m89.9,40.1v9.8h-9.8v-9.8h9.8m.1-.1h-10v10h10v-10h0Z"/>
    <path d="m99.9,40.1v9.8h-9.8v-9.8h9.8m.1-.1h-10v10h10v-10h0Z"/>
    <path d="m109.9,40.1v9.8h-9.8v-9.8h9.8m.1-.1h-10v10h10v-10h0Z"/>
    <path d="m119.9,40.1v9.8h-9.8v-9.8h9.8m.1-.1h-10v10h10v-10h0Z"/>
    <path d="m129.9,40.1v9.8h-9.8v-9.8h9.8m.1-.1h-10v10h10v-10h0Z"/>
    <path d="m139.9,40.1v9.8h-9.8v-9.8h9.8m.1-.1h-10v10h10v-10h0Z"/>
    <path d="m149.9,40.1v9.8h-9.8v-9.8h9.8m.1-.1h-10v10h10v-10h0Z"/>
    <path d="m159.9,40.1v9.8h-9.8v-9.8h9.8m.1-.1h-10v10h10v-10h0Z"/>
    <path d="m169.9,40.1v9.8h-9.8v-9.8h9.8m.1-.1h-10v10h10v-10h0Z"/>
    <path d="m179.9,40.1v9.8h-9.8v-9.8h9.8m.1-.1h-10v10h10v-10h0Z"/>
    <path d="m189.9,40.1v9.8h-9.8v-9.8h9.8m.1-.1h-10v10h10v-10h0Z"/>
    <path d="m199.9,40.1v9.8h-9.8v-9.8h9.8m.1-.1h-10v10h10v-10h0Z"/>
    <path d="m49.9,50.1v9.8h-9.8v-9.8h9.8m.1-.1h-10v10h10v-10h0Z"/>
    <path d="m59.9,50.1v9.8h-9.8v-9.8h9.8m.1-.1h-10v10h10v-10h0Z"/>
    <path d="m69.9,50.1v9.8h-9.8v-9.8h9.8m.1-.1h-10v10h10v-10h0Z"/>
    <path d="m79.9,50.1v9.8h-9.8v-9.8h9.8m.1-.1h-10v10h10v-10h0Z"/>
    <path d="m89.9,50.1v9.8h-9.8v-9.8h9.8m.1-.1h-10v10h10v-10h0Z"/>
    <path d="m99.9,50.1v9.8h-9.8v-9.8h9.8m.1-.1h-10v10h10v-10h0Z"/>
    <path d="m109.9,50.1v9.8h-9.8v-9.8h9.8m.1-.1h-10v10h10v-10h0Z"/>
    <path d="m119.9,50.1v9.8h-9.8v-9.8h9.8m.1-.1h-10v10h10v-10h0Z"/>
    <path d="m129.9,50.1v9.8h-9.8v-9.8h9.8m.1-.1h-10v10h10v-10h0Z"/>
    <path d="m139.9,50.1v9.8h-9.8v-9.8h9.8m.1-.1h-10v10h10v-10h0Z"/>
    <path d="m149.9,50.1v9.8h-9.8v-9.8h9.8m.1-.1h-10v10h10v-10h0Z"/>
    <path d="m159.9,50.1v9.8h-9.8v-9.8h9.8m.1-.1h-10v10h10v-10h0Z"/>
    <path d="m169.9,50.1v9.8h-9.8v-9.8h9.8m.1-.1h-10v10h10v-10h0Z"/>
    <path d="m179.9,50.1v9.8h-9.8v-9.8h9.8m.1-.1h-10v10h10v-10h0Z"/>
    <path d="m189.9,50.1v9.8h-9.8v-9.8h9.8m.1-.1h-10v10h10v-10h0Z"/>
    <path d="m29.9,60.1v9.8h-9.8v-9.8h9.8m.1-.1h-10v10h10v-10h0Z"/>
    <path d="m39.9,60.1v9.8h-9.8v-9.8h9.8m.1-.1h-10v10h10v-10h0Z"/>
    <path d="m49.9,60.1v9.8h-9.8v-9.8h9.8m.1-.1h-10v10h10v-10h0Z"/>
    <path d="m59.9,60.1v9.8h-9.8v-9.8h9.8m.1-.1h-10v10h10v-10h0Z"/>
    <path d="m69.9,60.1v9.8h-9.8v-9.8h9.8m.1-.1h-10v10h10v-10h0Z"/>
    <path d="m19.9,70.1v9.8h-9.8v-9.8h9.8m.1-.1h-10v10h10v-10h0Z"/>
    <path d="m29.9,70.1v9.8h-9.8v-9.8h9.8m.1-.1h-10v10h10v-10h0Z"/>
    <path d="m39.9,70.1v9.8h-9.8v-9.8h9.8m.1-.1h-10v10h10v-10h0Z"/>
    <path d="m49.9,70.1v9.8h-9.8v-9.8h9.8m.1-.1h-10v10h10v-10h0Z"/>
    <path d="m59.9,70.1v9.8h-9.8v-9.8h9.8m.1-.1h-10v10h10v-10h0Z"/>
    <path d="m69.9,70.1v9.8h-9.8v-9.8h9.8m.1-.1h-10v10h10v-10h0Z"/>
    <path d="m9.9,80.1v9.8H.1v-9.8h9.8m.1-.1H0v10h10v-10h0Z"/>
    <path d="m19.9,80.1v9.8h-9.8v-9.8h9.8m.1-.1h-10v10h10v-10h0Z"/>
    <path d="m29.9,80.1v9.8h-9.8v-9.8h9.8m.1-.1h-10v10h10v-10h0Z"/>
    <path d="m39.9,80.1v9.8h-9.8v-9.8h9.8m.1-.1h-10v10h10v-10h0Z"/>
    <path d="m49.9,80.1v9.8h-9.8v-9.8h9.8m.1-.1h-10v10h10v-10h0Z"/>
    <path d="m59.9,80.1v9.8h-9.8v-9.8h9.8m.1-.1h-10v10h10v-10h0Z"/>
    <path d="m9.9,90.1v9.8H.1v-9.8h9.8m.1-.1H0v10h10v-10h0Z"/>
    <path d="m19.9,90.1v9.8h-9.8v-9.8h9.8m.1-.1h-10v10h10v-10h0Z"/>
    <path d="m29.9,90.1v9.8h-9.8v-9.8h9.8m.1-.1h-10v10h10v-10h0Z"/>
    <path d="m39.9,90.1v9.8h-9.8v-9.8h9.8m.1-.1h-10v10h10v-10h0Z"/>
    <path d="m49.9,90.1v9.8h-9.8v-9.8h9.8m.1-.1h-10v10h10v-10h0Z"/>
    <path d="m29.9,100.1v9.8h-9.8v-9.8h9.8m.1-.1h-10v10h10v-10h0Z"/>
    <path d="m39.9,100.1v9.8h-9.8v-9.8h9.8m.1-.1h-10v10h10v-10h0Z"/>
  </g>
  <polyline points="90 0 90 10 80 10 80 0"/>
  <polyline points="100 0 100 10 90 10 90 0"/>
  <polyline points="110 0 110 10 100 10 100 0"/>
  <polyline points="120 0 120 10 110 10 110 0"/>
  <polyline points="130 0 130 10 120 10 120 0"/>
  <polyline points="140 0 140 10 130 10 130 0"/>
  <polyline points="150 0 150 10 140 10 140 0"/>
  <polyline points="160 0 160 10 150 10 150 0"/>
  <polyline points="170 0 170 10 160 10 160 0"/>
  <rect x="70" y="10" width="10" height="10"/>
  <rect class="cls-2" x="80" y="10" width="10" height="10"/>
  <rect class="cls-1" x="90" y="10" width="10" height="10"/>
  <rect class="cls-3" x="100" y="10" width="10" height="10"/>
  <rect class="cls-3" x="110" y="10" width="10" height="10"/>
  <rect class="cls-2" x="120" y="10" width="10" height="10"/>
  <rect class="cls-2" x="130" y="10" width="10" height="10"/>
  <rect class="cls-2" x="140" y="10" width="10" height="10"/>
  <rect class="cls-2" x="150" y="10" width="10" height="10"/>
  <rect class="cls-2" x="160" y="10" width="10" height="10"/>
  <rect x="170" y="10" width="10" height="10"/>
  <rect x="60" y="20" width="10" height="10"/>
  <rect class="cls-1" x="70" y="20" width="10" height="10"/>
  <rect class="cls-1" x="80" y="20" width="10" height="10"/>
  <rect class="cls-3" x="90" y="20" width="10" height="10"/>
  <rect class="cls-3" x="100" y="20" width="10" height="10"/>
  <rect class="cls-3" x="110" y="20" width="10" height="10"/>
  <rect class="cls-3" x="120" y="20" width="10" height="10"/>
  <rect class="cls-3" x="130" y="20" width="10" height="10"/>
  <rect class="cls-3" x="140" y="20" width="10" height="10"/>
  <rect class="cls-3" x="150" y="20" width="10" height="10"/>
  <rect class="cls-3" x="160" y="20" width="10" height="10"/>
  <rect class="cls-3" x="170" y="20" width="10" height="10"/>
  <rect x="180" y="20" width="10" height="10"/>
  <rect x="50" y="30" width="10" height="10"/>
  <rect class="cls-1" x="60" y="30" width="10" height="10"/>
  <rect class="cls-2" x="70" y="30" width="10" height="10"/>
  <rect class="cls-2" x="80" y="30" width="10" height="10"/>
  <rect class="cls-2" x="90" y="30" width="10" height="10"/>
  <rect class="cls-2" x="100" y="30" width="10" height="10"/>
  <rect class="cls-2" x="110" y="30" width="10" height="10"/>
  <rect class="cls-2" x="120" y="30" width="10" height="10"/>
  <rect class="cls-2" x="130" y="30" width="10" height="10"/>
  <rect class="cls-2" x="140" y="30" width="10" height="10"/>
  <rect class="cls-2" x="150" y="30" width="10" height="10"/>
  <rect class="cls-2" x="160" y="30" width="10" height="10"/>
  <rect class="cls-2" x="170" y="30" width="10" height="10"/>
  <rect class="cls-2" x="180" y="30" width="10" height="10"/>
  <rect x="190" y="30" width="10" height="10"/>
  <rect x="50" y="40" width="10" height="10"/>
  <rect class="cls-1" x="60" y="40" width="10" height="10"/>
  <rect class="cls-1" x="70" y="40" width="10" height="10"/>
  <rect class="cls-1" x="80" y="40" width="10" height="10"/>
  <rect class="cls-1" x="90" y="40" width="10" height="10"/>
  <rect class="cls-1" x="100" y="40" width="10" height="10"/>
  <rect class="cls-1" x="110" y="40" width="10" height="10"/>
  <rect class="cls-1" x="120" y="40" width="10" height="10"/>
  <rect class="cls-1" x="130" y="40" width="10" height="10"/>
  <rect class="cls-1" x="140" y="40" width="10" height="10"/>
  <rect class="cls-1" x="150" y="40" width="10" height="10"/>
  <rect class="cls-1" x="160" y="40" width="10" height="10"/>
  <rect class="cls-1" x="170" y="40" width="10" height="10"/>
  <rect class="cls-1" x="180" y="40" width="10" height="10"/>
  <rect x="190" y="40" width="10" height="10"/>
  <rect x="40" y="50" width="10" height="10"/>
  <rect class="cls-1" x="50" y="50" width="10" height="10"/>
  <rect class="cls-2" x="60" y="50" width="10" height="10"/>
  <rect class="cls-4" x="70" y="50" width="10" height="10"/>
  <rect class="cls-4" x="80" y="50" width="10" height="10"/>
  <rect class="cls-4" x="90" y="50" width="10" height="10"/>
  <rect class="cls-4" x="100" y="50" width="10" height="10"/>
  <rect class="cls-4" x="110" y="50" width="10" height="10"/>
  <rect class="cls-4" x="120" y="50" width="10" height="10"/>
  <rect class="cls-4" x="130" y="50" width="10" height="10"/>
  <rect class="cls-4" x="140" y="50" width="10" height="10"/>
  <rect class="cls-4" x="150" y="50" width="10" height="10"/>
  <rect class="cls-4" x="160" y="50" width="10" height="10"/>
  <rect class="cls-4" x="170" y="50" width="10" height="10"/>
  <rect x="180" y="50" width="10" height="10"/>
  <rect x="20" y="60" width="10" height="10"/>
  <rect x="30" y="60" width="10" height="10"/>
  <rect class="cls-1" x="40" y="60" width="10" height="10"/>
  <rect class="cls-2" x="50" y="60" width="10" height="10"/>
  <rect x="60" y="60" width="10" height="10"/>
  <rect x="10" y="70" width="10" height="10"/>
  <rect class="cls-1" x="20" y="70" width="10" height="10"/>
  <rect class="cls-1" x="30" y="70" width="10" height="10"/>
  <rect class="cls-2" x="40" y="70" width="10" height="10"/>
  <rect class="cls-2" x="50" y="70" width="10" height="10"/>
  <rect x="60" y="70" width="10" height="10"/>
  <rect x="0" y="80" width="10" height="10"/>
  <rect class="cls-1" x="10" y="80" width="10" height="10"/>
  <rect class="cls-1" x="20" y="80" width="10" height="10"/>
  <rect class="cls-2" x="30" y="80" width="10" height="10"/>
  <rect class="cls-2" x="40" y="80" width="10" height="10"/>
  <rect x="50" y="80" width="10" height="10"/>
  <rect x="0" y="90" width="10" height="10"/>
  <rect x="10" y="90" width="10" height="10"/>
  <rect x="20" y="90" width="10" height="10"/>
  <rect class="cls-2" x="30" y="90" width="10" height="10"/>
  <rect x="40" y="90" width="10" height="10"/>
  <polyline points="20 110 20 100 30 100 30 110"/>
  <polyline points="30 110 30 100 40 100 40 110"/>
</svg>